<svg width="238" height="41" viewBox="0 0 238 41" fill="none" xmlns="http://www.w3.org/2000/svg">
<path d="M16.9043 2.64258C14.8303 2.64258 12.9484 2.85719 11.6432 3.18391C10.9865 3.34727 10.474 3.54506 10.1857 3.71643C10.0816 3.77889 10.0496 3.81092 10.0176 3.84375C10.0496 3.87658 10.0816 3.90861 10.1857 3.97107C10.474 4.14244 10.9865 4.34023 11.6432 4.50359C12.9484 4.83031 14.8303 5.04492 16.9043 5.04492C18.9783 5.04492 20.8602 4.83031 22.1654 4.50359C22.8221 4.34023 23.3346 4.14244 23.6229 3.97107C23.727 3.90861 23.759 3.87658 23.791 3.84375C23.759 3.81092 23.727 3.77889 23.6229 3.71643C23.3346 3.54506 22.8221 3.34727 22.1654 3.18391C20.8602 2.85719 18.9783 2.64258 16.9043 2.64258ZM9.9375 5.45572V8.66445C10.458 8.92871 11.1387 9.19297 11.6432 9.32109C12.9484 9.64941 14.8303 9.86562 16.9043 9.86562C18.9783 9.86562 20.8602 9.64941 22.1654 9.32109C23.1264 9.08887 23.2385 9.06484 23.8711 8.66445V5.45572C23.4787 5.62869 23.0303 5.77363 22.5178 5.90176C21.0363 6.27092 19.0744 6.48633 16.9043 6.48633C14.7342 6.48633 12.7723 6.27092 11.2908 5.90176C10.7783 5.77363 10.3299 5.62869 9.9375 5.45572ZM10.6262 10.5383C9.96152 10.7705 9.30488 11.1869 8.76836 11.7234C7.91793 12.5643 7.375 13.6934 7.375 14.7344V19.8594C7.375 20.2598 7.55117 20.6041 8.00441 20.9965C8.45605 21.3809 9.18477 21.7572 10.0816 22.0615C11.8914 22.6621 14.3979 22.9824 16.9043 22.9824C19.4027 22.9824 21.9172 22.6621 23.727 22.0615C24.6238 21.7572 25.3525 21.3809 25.801 20.9965C26.2574 20.6041 26.4336 20.2598 26.4336 19.8594V14.7344C26.4336 13.6934 25.8891 12.5643 25.0402 11.7234C24.5037 11.1869 23.8551 10.7705 23.1824 10.5383C22.9742 10.6023 22.75 10.6664 22.5178 10.7225C21.0363 11.0908 19.0744 11.307 16.9043 11.307C14.7342 11.307 12.7723 11.0908 11.2908 10.7225C11.0586 10.6664 10.8344 10.6023 10.6262 10.5383ZM7.375 22.3338V27.5469C7.375 27.9473 7.55117 28.2916 8.00441 28.684C8.45605 29.0684 9.18477 29.4447 10.0816 29.749C11.8914 30.3496 14.3979 30.6699 16.9043 30.6699C19.4027 30.6699 21.9172 30.3496 23.727 29.749C24.6238 29.4447 25.3525 29.0684 25.801 28.684C26.2574 28.2916 26.4336 27.9473 26.4336 27.5469V22.3338C25.809 22.7822 25.0482 23.1346 24.1754 23.4229C22.1414 24.1035 19.5229 24.4238 16.9043 24.4238C14.2777 24.4238 11.6672 24.1035 9.6332 23.4229C8.76035 23.1346 7.99561 22.7822 7.375 22.3338ZM7.375 30.0213V35.2344C7.375 35.6348 7.55117 35.9791 8.00441 36.3715C8.45605 36.7559 9.18477 37.1322 10.0816 37.4365C11.8914 38.0371 14.3979 38.3574 16.9043 38.3574C18.3057 38.3574 19.723 38.2533 21.0043 38.0611C20.748 37.7008 20.5879 37.2924 20.5879 36.8279C20.5879 35.883 21.2525 35.1383 22.0854 34.6738C22.5898 34.3855 23.1904 34.1854 23.8471 34.0652C24.0232 33.3525 24.5998 32.784 25.2805 32.3996C25.6248 32.2074 26.0172 32.0473 26.4336 31.9271V30.0213C25.809 30.4697 25.0482 30.8221 24.1754 31.1104C22.1414 31.791 19.5229 32.1113 16.9043 32.1113C14.2777 32.1113 11.6672 31.791 9.6332 31.1104C8.76035 30.8221 7.99561 30.4697 7.375 30.0213ZM28.3475 33.1203C27.3945 33.1203 26.5377 33.3445 25.9852 33.6568C25.801 33.7609 25.6648 33.865 25.5527 33.9611C26.5617 34.0172 27.4906 34.2654 28.2193 34.6738C28.7158 34.9541 29.1562 35.3305 29.4205 35.7869C29.6607 35.1863 30.1732 34.6979 30.7818 34.3615C30.942 34.2734 31.1102 34.1934 31.2863 34.1133C31.1662 33.9691 30.982 33.809 30.7098 33.6568C30.1572 33.3445 29.3004 33.1203 28.3475 33.1203ZM33.8488 35.0822C32.8959 35.0822 32.0391 35.3064 31.4865 35.6187C30.926 35.9311 30.7258 36.2674 30.7258 36.5156C30.7258 36.7639 30.926 37.1002 31.4865 37.4125C32.0391 37.7248 32.8959 37.949 33.8488 37.949C34.8018 37.949 35.6586 37.7248 36.2111 37.4125C36.7717 37.1002 36.9719 36.7639 36.9719 36.5156C36.9719 36.2674 36.7717 35.9311 36.2111 35.6187C35.6586 35.3064 34.8018 35.0822 33.8488 35.0822ZM25.1523 35.3945C24.1994 35.3945 23.3426 35.6188 22.79 35.9311C22.2295 36.2434 22.0293 36.5797 22.0293 36.8279C22.0293 37.0762 22.2295 37.4125 22.79 37.7248C23.3426 38.0371 24.1994 38.2613 25.1523 38.2613C26.1053 38.2613 26.9621 38.0371 27.5146 37.7248C28.0752 37.4125 28.2754 37.0762 28.2754 36.8279C28.2754 36.5797 28.0752 36.2434 27.5146 35.9311C26.9621 35.6188 26.1053 35.3945 25.1523 35.3945Z" fill="#D23127"/>
<path d="M69.81 27.695V10.825H66.205V14.605C66.205 14.885 66.1933 15.3867 66.17 16.11C66.17 16.81 66.1467 17.615 66.1 18.525C66.0767 19.435 66.03 20.4033 65.96 21.43C65.89 22.4333 65.7967 23.3783 65.68 24.265C65.5867 25.1283 65.4583 25.875 65.295 26.505C65.155 27.135 64.98 27.5317 64.77 27.695H69.81ZM76.635 35.675H71.805V32H62.565V35.675H57.7V27.695H59.17C59.2867 27.6483 59.415 27.6017 59.555 27.555C59.695 27.485 59.835 27.345 59.975 27.135C60.1383 26.9017 60.29 26.54 60.43 26.05C60.57 25.56 60.71 24.8483 60.85 23.915C61.0133 22.7483 61.1533 21.1267 61.27 19.05C61.3867 16.95 61.445 14.2083 61.445 10.825V6.555H74.675V27.695H76.635V35.675ZM93.0046 16.215C93.4246 15.865 93.8096 15.5267 94.1596 15.2C94.5329 14.85 94.8829 14.4067 95.2096 13.87C95.5363 13.31 95.8279 12.5983 96.0846 11.735C96.3646 10.8483 96.6096 9.69333 96.8196 8.27C96.9129 7.68667 97.0879 7.255 97.3446 6.975C97.6246 6.695 98.0913 6.555 98.7446 6.555H102.315V10.86H101.405C101.148 10.86 100.973 10.9067 100.88 11C100.81 11.07 100.751 11.2217 100.705 11.455C100.565 12.3883 100.425 13.1467 100.285 13.73C100.145 14.3133 99.9929 14.8033 99.8296 15.2C99.6663 15.5733 99.4796 15.9 99.2696 16.18C99.0596 16.4367 98.8263 16.7167 98.5696 17.02L102.665 32H97.2746L94.2996 19.61L93.0046 20.73V32H88.1396V20.73L86.8446 19.61L83.8696 32H78.4796L82.5746 17.02C82.3179 16.7167 82.0846 16.4367 81.8746 16.18C81.6646 15.9 81.4779 15.5733 81.3146 15.2C81.1513 14.8033 80.9996 14.3133 80.8596 13.73C80.7196 13.1467 80.5796 12.3883 80.4396 11.455C80.3929 11.2217 80.3229 11.07 80.2296 11C80.1596 10.9067 79.9963 10.86 79.7396 10.86H78.8296V6.555H82.3996C83.0529 6.555 83.5079 6.695 83.7646 6.975C84.0446 7.255 84.2313 7.68667 84.3246 8.27C84.5346 9.69333 84.7679 10.8483 85.0246 11.735C85.3046 12.5983 85.6079 13.31 85.9346 13.87C86.2613 14.4067 86.5996 14.85 86.9496 15.2C87.3229 15.5267 87.7196 15.865 88.1396 16.215V6.555H93.0046V16.215ZM113.989 15.725L109.999 32H105.134V6.555H109.999V22.55L113.954 6.555H118.854V32H113.989V15.725ZM122.566 6.555H127.431V14.815H131.071V6.555H135.936V32H131.071V18.28L129.251 19.33L127.431 18.28V32H122.566V6.555ZM142.666 29.235V10.79H138.676V6.555H151.731V10.79H147.741V29.235L148.301 32H142.106L142.666 29.235ZM154.386 6.555H162.681C164.267 6.555 165.516 7.03333 166.426 7.99C166.752 8.36333 166.974 8.725 167.091 9.075C167.207 9.425 167.266 9.79833 167.266 10.195V16.95C167.266 17.6033 166.997 18.2683 166.461 18.945C165.947 19.5983 165.294 20.2167 164.501 20.8C163.707 21.36 162.844 21.85 161.911 22.27C161.001 22.6667 160.161 22.935 159.391 23.075V32H154.386V6.555ZM159.286 18.875C159.589 18.8283 159.927 18.7233 160.301 18.56C160.697 18.3733 161.071 18.1633 161.421 17.93C161.771 17.6733 162.062 17.3933 162.296 17.09C162.552 16.7633 162.681 16.425 162.681 16.075V11.665C162.681 10.8717 162.307 10.475 161.561 10.475H159.286V18.875ZM176.088 32.49C175.318 32.49 174.583 32.35 173.883 32.07C173.206 31.8133 172.599 31.4517 172.063 30.985C171.526 30.5183 171.094 29.97 170.768 29.34C170.464 28.71 170.313 28.0217 170.313 27.275V11.28C170.313 10.5333 170.464 9.845 170.768 9.215C171.094 8.56167 171.526 8.00167 172.063 7.535C172.599 7.06833 173.206 6.70667 173.883 6.45C174.583 6.17 175.318 6.03 176.088 6.03H177.908C178.654 6.03 179.378 6.17 180.078 6.45C180.778 6.70667 181.384 7.06833 181.898 7.535C182.434 8.00167 182.854 8.56167 183.158 9.215C183.484 9.845 183.648 10.5333 183.648 11.28V27.275C183.648 28.0217 183.484 28.71 183.158 29.34C182.854 29.97 182.434 30.5183 181.898 30.985C181.384 31.4517 180.778 31.8133 180.078 32.07C179.378 32.35 178.654 32.49 177.908 32.49H176.088ZM177.488 28.92C177.744 28.92 178.024 28.7333 178.328 28.36C178.654 27.9867 178.818 27.4967 178.818 26.89V11.63C178.818 11.0233 178.678 10.5333 178.398 10.16C178.141 9.78667 177.838 9.6 177.488 9.6H176.508C176.158 9.6 175.843 9.76333 175.563 10.09C175.283 10.4167 175.143 10.93 175.143 11.63V26.89C175.143 27.59 175.306 28.1033 175.633 28.43C175.959 28.7567 176.251 28.92 176.508 28.92H177.488ZM187.268 6.555H201.058V32H196.193V10.02L194.163 11.14L192.133 10.02V32H187.268V6.555ZM213.897 15.725L209.907 32H205.042V6.555H209.907V22.55L213.862 6.555H218.762V32H213.897V15.725ZM222.473 6.555H227.338V14.815H230.978V6.555H235.843V32H230.978V18.28L229.158 19.33L227.338 18.28V32H222.473V6.555Z" fill="#D23127"/>
</svg>
