<svg width="306" height="273" viewBox="0 0 306 273" fill="none" xmlns="http://www.w3.org/2000/svg">
<path d="M117.423 29.761C118.215 29.5161 118.658 28.6761 118.413 27.8847C118.168 27.0932 117.328 26.6502 116.536 26.8951L117.423 29.761ZM285.948 172.641L272.813 161.35L269.603 178.371L285.948 172.641ZM116.536 26.8951C79.2232 38.4402 54.1718 50.1342 41.7248 62.0835C35.4704 68.0879 32.2199 74.3305 32.4421 80.7897C32.6636 87.2307 36.3256 93.4746 42.9658 99.5223C56.2072 111.582 82.0411 123.546 120.167 135.502C158.363 147.481 209.116 159.516 272.404 171.612L272.967 168.666C209.733 156.58 159.106 144.57 121.065 132.64C82.9551 120.688 57.6953 108.88 44.9859 97.3043C38.6506 91.5344 35.6229 85.9949 35.4403 80.6866C35.2584 75.3967 37.8895 69.9242 43.8024 64.2477C55.6901 52.8353 80.1161 41.3042 117.423 29.761L116.536 26.8951Z" fill="#022B6B"/>
</svg>
