<svg width="167" height="166" viewBox="0 0 167 166" fill="none" xmlns="http://www.w3.org/2000/svg">
<path fill-rule="evenodd" clip-rule="evenodd" d="M68.4812 0.950221C48.2756 4.5971 29.309 16.3217 16.7637 32.9199C0.203562 54.8302 -4.40798 83.2847 4.36385 109.429C13.5959 136.944 34.6763 156.209 64.2053 164.117C71.5825 166.092 89.2328 166.638 97.7838 165.155C131.868 159.244 158.412 133.473 165.713 99.2023C167.406 91.2583 167.433 74.8484 165.767 67.0974C164.068 59.1935 162.144 53.5745 158.697 46.4538C147.253 22.8088 124.175 5.43142 98.2323 0.924019C91.0745 -0.319189 75.4396 -0.305398 68.4812 0.950221ZM93.6201 6.14094C111.471 8.66942 128.831 17.5663 140.362 30.0949C149.235 39.7379 156.062 52.2403 159.225 64.6455C160.506 69.6645 160.742 72.5136 160.748 82.9985C160.754 93.8681 160.551 96.1808 159.114 101.616C154.556 118.847 144.297 134.381 130.763 144.541C106.994 162.384 76.3726 165.452 49.9277 152.642C28.7933 142.403 14.1102 124.51 8.05489 101.616C6.61945 96.1884 6.41389 93.8537 6.41389 82.9985C6.41389 72.1434 6.61945 69.8086 8.05489 64.3814C14.1192 41.4521 28.7532 23.6189 49.9277 13.3527C63.8288 6.61396 79.1286 4.08824 93.6201 6.14094ZM76.6633 13.696C32.7467 18.1186 3.74718 61.7888 16.9243 103.656C20.0672 113.641 28.2016 127.464 31.2836 128.055C33.1135 128.406 128.572 33.3171 128.572 31.143C128.572 29.4178 125.876 27.0583 119.52 23.2218C107.266 15.8253 91.1312 12.2391 76.6633 13.696ZM99.8491 21.227C105.466 22.7177 116.415 27.6982 119.574 30.1991L121.305 31.5684L116.65 36.2531L111.995 40.9377L107.591 41.0287C96.392 41.2604 88.2534 49.3636 87.2499 61.2806C86.8554 65.9749 86.8408 66.0018 82.468 70.3196L78.0814 74.6512L68.8936 65.6598C58.1624 55.1577 55.8764 53.9779 47.3323 54.5344C35.556 55.3004 27.6389 64.3125 28.3836 76.1033C28.8169 82.9627 30.5596 85.8331 40.2174 95.5947L48.5864 104.054L40.3039 112.338L32.022 120.623L30.5222 118.765C28.3213 116.038 23.7125 106.426 22.1325 101.271C20.1426 94.7749 18.9944 84.7223 19.5426 78.5883C22.1622 49.2809 42.4176 26.3626 71.1264 20.2251C77.7375 18.8116 92.7189 19.3343 99.8491 21.227ZM86.4615 85.6483C46.4214 125.541 38.5113 133.732 38.7079 135.097C39.0304 137.338 44.3617 141.234 52.7854 145.384C75.3476 156.5 102.023 154.667 123.117 140.55C132.133 134.516 141.679 123.424 146.537 113.337C155.775 94.1536 155.653 71.0098 146.212 52.061C142.582 44.7742 137.431 37.8348 135.654 37.8348C134.984 37.8348 113.174 59.0342 86.4615 85.6483ZM140.96 54.8274C145.421 63.7512 147.361 72.1344 147.4 82.6537C147.441 93.5985 145.755 101.018 141.037 110.675C132.422 128.303 118.216 139.717 98.1188 145.16C91.1132 147.056 75.3829 146.892 67.6658 144.84C61.8348 143.29 50.9243 138.358 47.5946 135.768L45.8643 134.422L54.1295 126.15L62.3947 117.878L65.6241 120.888C71.0648 125.958 73.9537 127.118 81.162 127.123C86.7508 127.127 87.7648 126.922 91.0246 125.122L94.6582 123.116L98.2918 125.122C101.55 126.921 102.568 127.128 108.154 127.125C112.932 127.123 114.948 126.82 116.806 125.824C121.52 123.297 124.344 120.511 126.454 116.305L128.572 112.083V84.6568C128.572 67.2912 128.307 56.5374 127.85 55.3397C127.18 53.5835 127.415 53.1601 131.137 49.405L135.147 45.3616L136.575 47.1365C137.359 48.1121 139.333 51.5735 140.96 54.8274ZM99.838 53.0153C96.4224 56.434 93.5294 58.9397 93.4104 58.5825C93.0546 57.5207 95.7684 52.7988 97.8821 50.8013C99.7162 49.0685 103.826 46.8869 105.371 46.8255C105.744 46.811 103.254 49.596 99.838 53.0153ZM123.035 69.8976V81.2747H111.104H99.1729L110.577 69.8976C116.849 63.6402 122.218 58.5205 122.508 58.5205C122.797 58.5205 123.035 63.6402 123.035 69.8976ZM53.3973 60.7311C55.5691 61.3648 58.267 63.5285 64.7493 69.8342L73.2519 78.1063L62.6826 88.6526L52.1134 99.1988L44.9611 92.1333C34.4922 81.7912 32.6235 77.9105 34.6943 70.8147C36.4488 64.8013 42.5352 60.0209 48.5525 59.9299C49.6502 59.9133 51.8303 60.2739 53.3973 60.7311ZM123.031 97.9956C123.029 103.779 122.694 109.707 122.287 111.169C120.51 117.541 112.628 122.627 106.05 121.643C101.841 121.015 96.8294 117.474 94.8707 113.746C93.3868 110.923 93.274 109.884 93.274 99.094V87.4804H108.154H123.035L123.031 97.9956ZM88.9656 115.261L90.4516 118.562L88.2873 119.873C82.3462 123.473 74.4956 121.835 68.7303 115.795L66.681 113.647L76.6896 103.653L86.6989 93.6599L87.0893 102.809C87.4007 110.094 87.7828 112.631 88.9656 115.261Z" fill="#FCEE03"/>
</svg>
