<svg width="443" height="359" viewBox="0 0 443 359" fill="none" xmlns="http://www.w3.org/2000/svg">
<path d="M178.342 137.033C179.025 136.565 179.2 135.631 178.731 134.948C178.263 134.264 177.33 134.09 176.646 134.558L178.342 137.033ZM343.256 204.519L327.003 198.532L329.945 215.601L343.256 204.519ZM176.646 134.558C145.319 156.023 124.791 173.733 115.309 187.677C110.573 194.642 108.416 200.924 109.364 206.396C110.328 211.961 114.409 216.215 121.011 219.291C127.596 222.358 136.902 224.366 148.828 225.388C160.776 226.412 175.457 226.455 192.857 225.526C227.657 223.669 273.444 217.92 330.2 208.291L329.698 205.333C272.993 214.953 227.332 220.682 192.697 222.53C175.379 223.455 160.847 223.408 149.084 222.399C137.299 221.389 128.397 219.422 122.277 216.571C116.174 213.728 113.054 210.122 112.32 205.884C111.57 201.552 113.218 196.087 117.79 189.363C126.925 175.929 147.027 158.489 178.342 137.033L176.646 134.558Z" fill="#588EF7" fill-opacity="0.7"/>
</svg>
