<svg width="176" height="161" viewBox="0 0 176 161" fill="none" xmlns="http://www.w3.org/2000/svg">
<path fill-rule="evenodd" clip-rule="evenodd" d="M39.0109 18.8679L0 37.6722V80.5413V123.41L38.9635 142.205C60.3932 152.542 78.215 161 78.5679 161C78.9201 161 89.386 156.121 101.825 150.157L124.443 139.313L128.533 141.775C130.781 143.129 134.387 144.897 136.545 145.703L140.467 147.17L144.813 145.415C159.655 139.424 169.603 127.914 173.895 111.766C175.629 105.241 176.603 90.1898 175.588 85.6049C174.954 82.7364 174.916 82.7102 166.591 79.365L158.231 76.0067L158.036 57.2935C157.845 38.8325 157.82 38.5657 156.213 37.5228C154.318 36.2919 78.7954 -0.0945584 78.3324 0.000184696C78.1618 0.0351668 60.4669 8.5256 39.0109 18.8679ZM43.5143 22.5192C24.5353 31.6699 8.90396 39.269 8.77782 39.406C8.6524 39.5438 12.0467 41.3213 16.3204 43.3561L24.0912 47.0562L45.1002 36.8807L66.1092 26.7061L82.6389 34.6813C97.1721 41.6937 99.1941 42.8765 99.3852 44.4799C99.5893 46.1903 98.4095 46.8842 80.4266 55.6384L61.2507 64.9728L69.5488 68.8944C74.1127 71.0517 78.2143 72.8212 78.6635 72.827C80.2166 72.8481 148.405 39.7464 147.85 39.2399C147.108 38.5621 78.9347 5.75109 78.4221 5.8247C78.2019 5.85604 62.4933 13.3692 43.5143 22.5192ZM47.5153 41.3985L30.1339 49.9327L42.6808 55.981L55.2285 62.0292L71.3644 54.2158C80.2399 49.9181 88.3163 45.9826 89.3123 45.4696C91.0398 44.5812 90.549 44.262 78.8122 38.635C72.0404 35.3889 66.1391 32.7623 65.698 32.7988C65.2576 32.8352 57.0748 36.7051 47.5153 41.3985ZM4.73964 81.8509V119.937L39.8086 136.824C59.0968 146.113 75.1751 153.712 75.5382 153.712C75.9247 153.712 76.1988 138.012 76.1988 115.93V78.1486L67.2664 73.7781L58.334 69.4075L58.1401 89.0893C58.011 102.123 57.6734 109.099 57.1389 109.742C55.1928 112.086 53.5579 110.686 45.5064 99.7872C37.9842 89.606 37.3265 88.9173 35.8528 89.6832C34.9829 90.1358 32.0021 91.8186 29.229 93.4241C25.4242 95.6258 23.9024 96.1637 23.031 95.6149C22.032 94.9852 21.8257 91.9389 21.5107 73.1921L21.1461 51.4981L12.9429 47.6319L4.73964 43.7657V81.8509ZM116.304 61.0774L81.6677 77.7354L81.4788 115.724C81.3753 136.618 81.43 153.712 81.6006 153.712C82.2576 153.712 88.8114 150.664 104.155 143.223L120.081 135.5L117.011 132.035C115.323 130.128 113.608 127.849 113.202 126.97C112.475 125.403 112.437 125.399 111.283 126.766C110.636 127.533 106.603 129.783 102.322 131.765C95.8268 134.774 94.3364 135.221 93.3104 134.472C90.7663 132.612 92.3807 130.867 100.262 126.956C104.473 124.866 108.605 123.253 109.445 123.371C110.954 123.584 110.951 123.532 109.117 118.789C108.097 116.152 107.198 113.89 107.119 113.765C107.039 113.639 104.294 114.884 101.016 116.531C94.4873 119.812 92.2407 119.884 92.2407 116.812C92.2407 115.243 93.0866 114.596 98.3636 112.124C101.732 110.546 104.887 109.256 105.376 109.256C105.951 109.256 106.099 108.677 105.794 107.616C104.94 104.645 104.451 87.8088 105.143 85.2055C105.82 82.6628 105.878 82.6329 123.099 75.8384L140.377 69.0212L145.293 70.9999C147.998 72.0887 150.621 73.1411 151.122 73.3401C151.833 73.6214 152.033 70.4766 152.033 59.047C152.033 50.9873 151.787 44.399 151.486 44.4063C151.186 44.4135 135.353 51.9157 116.304 61.0774ZM26.6149 71.7294V88.8619L30.8077 86.5509C33.1141 85.2799 35.3118 83.9651 35.6931 83.6299C36.0738 83.2939 37.118 83.0192 38.0119 83.0192C39.245 83.0192 41.1525 85.0787 45.887 91.5205L52.1361 100.021V83.2509V66.4807L39.7532 60.5388C32.9427 57.2702 27.2004 54.5962 26.9926 54.5962C26.7848 54.5962 26.6149 62.3061 26.6149 71.7294ZM124.887 80.6841C108.197 87.1981 109.176 86.059 110.014 97.9806C111.033 112.472 115.148 122.713 123.204 130.812C128.204 135.839 137.165 141.323 140.38 141.323C142.922 141.323 153.203 135.492 156.699 132.068C163.923 124.992 167.958 116.979 169.9 105.848C171.043 99.2997 171.353 88.3219 170.434 86.9656C169.834 86.0815 141.74 74.9835 140.233 75.036C139.705 75.0542 132.799 77.5955 124.887 80.6841ZM148.677 102.984C144.307 108.796 140.567 113.555 140.366 113.56C140.166 113.564 138.422 111.432 136.49 108.82C134.558 106.208 132.503 103.89 131.923 103.667C130.66 103.183 128.699 104.652 128.699 106.083C128.699 107.818 138.982 120.916 140.344 120.916C142.037 120.916 160.994 95.9552 160.656 94.1719C160.506 93.3855 159.646 92.7697 158.515 92.6378C156.846 92.4432 155.686 93.6639 148.677 102.984Z" fill="#FCEE03"/>
</svg>
