<svg width="290" height="297" viewBox="0 0 290 297" fill="none" xmlns="http://www.w3.org/2000/svg">
<path d="M160.286 197.041V105.157M198.502 151.099H244.36M221.431 128.128V174.07M7.42468 151.099C7.42468 169.198 10.9832 187.121 17.897 203.843C24.8108 220.565 34.9445 235.759 47.7196 248.557C60.4946 261.355 75.6608 271.508 92.3522 278.434C109.044 285.36 126.933 288.925 145 288.925C163.067 288.925 180.956 285.36 197.648 278.434C214.339 271.508 229.505 261.355 242.28 248.557C255.056 235.759 265.189 220.565 272.103 203.843C279.017 187.121 282.575 169.198 282.575 151.099C282.575 132.999 279.017 115.077 272.103 98.3549C265.189 81.633 255.056 66.4391 242.28 53.6407C229.505 40.8423 214.339 30.6901 197.648 23.7636C180.956 16.8372 163.067 13.2722 145 13.2722C126.933 13.2722 109.044 16.8372 92.3522 23.7636C75.6608 30.6901 60.4946 40.8423 47.7196 53.6407C34.9445 66.4391 24.8108 81.633 17.897 98.3549C10.9832 115.077 7.42468 132.999 7.42468 151.099Z" stroke="#00346E" stroke-width="12" stroke-linecap="round" stroke-linejoin="round"/>
<path d="M68.5693 128.128C68.5693 122.036 70.985 116.193 75.2851 111.885C79.5851 107.577 85.4173 105.157 91.4985 105.157C97.5797 105.157 103.412 107.577 107.712 111.885C112.012 116.193 114.428 122.036 114.428 128.128C114.428 134.912 109.643 143.273 105.073 149.46L68.5693 197.041H114.428" stroke="#00346E" stroke-width="12" stroke-linecap="round" stroke-linejoin="round"/>
</svg>
