<svg width="313" height="246" viewBox="0 0 313 246" fill="none" xmlns="http://www.w3.org/2000/svg">
<path d="M198.619 0.716233C197.987 0.232629 197.061 0.401891 196.551 1.09429C196.041 1.78669 196.139 2.74003 196.77 3.22364L198.619 0.716233ZM0.817383 236.408L14.9857 245.078L16.0004 227.421L0.817383 236.408ZM196.77 3.22364C246.257 41.1231 279.406 74.3238 296.379 102.82C304.86 117.06 309.245 130.032 309.684 141.755C310.121 153.431 306.649 163.958 299.239 173.411C284.315 192.451 253.297 207.287 205.62 217.602C158.038 227.895 94.2217 233.615 14.1322 234.736L13.9656 237.795C94.1376 236.672 158.169 230.947 206.022 220.595C253.779 210.263 285.782 195.251 301.466 175.242C309.359 165.171 313.088 153.872 312.622 141.423C312.158 129.021 307.537 115.567 298.909 101.081C281.662 72.1247 248.178 38.6718 198.619 0.716233L196.77 3.22364Z" fill="#FCEE03"/>
</svg>
