<svg width="168" height="33" viewBox="0 0 168 33" fill="none" xmlns="http://www.w3.org/2000/svg">
<g clip-path="url(#clip0_388_5)">
<mask id="mask0_388_5" style="mask-type:luminance" maskUnits="userSpaceOnUse" x="0" y="0" width="169" height="33">
<path d="M0 -2.0616e-08H168.001V33H0V-2.0616e-08Z" fill="white"/>
</mask>
<g mask="url(#mask0_388_5)">
<path d="M16.0425 19.1575C16.2695 17.4551 16.3811 14.5351 16.3884 10.3807C16.7291 10.3617 17.0915 10.3432 17.4541 10.3227H18.526C19.2734 10.3227 19.8741 10.3392 20.3046 10.369C20.354 12.0174 20.38 13.1224 20.38 13.6968V20.1076C20.38 20.6818 20.354 21.7853 20.3046 23.3646C19.8476 23.4089 19.2747 23.4254 18.6116 23.4254C18.412 23.4254 18.1614 23.4254 17.8664 23.4164V23.3991H17.4541L17.024 23.3751V23.3971C16.4057 23.3914 15.6469 23.3738 14.767 23.3424C15.3925 22.0988 15.8163 20.6968 16.0425 19.1575ZM22.8072 23.676C22.7537 23.6366 22.7668 23.6503 22.7554 23.6048L22.7537 23.5883L22.7529 23.577C22.7045 23.2985 22.6703 22.1048 22.672 20.0806V13.7245C22.6694 11.6746 22.7053 10.4455 22.752 10.2036L22.7545 10.1839L22.7554 10.1714C22.7676 10.1263 22.7512 10.1444 22.8064 10.1033C22.8637 10.0683 23.0216 10.022 23.2743 10.024L24.2647 10.023V8.51295H23.2458L18.5155 8.62002H17.8664H17.4456C15.9485 8.62002 14.7062 8.56803 13.6873 8.51419L13.2429 8.48966V10.023H14.2328C14.47 10.023 14.6115 10.0663 14.6675 10.1033C14.7209 10.1424 14.7329 10.1505 14.7536 10.2483C14.8047 10.5806 14.8356 11.3434 14.8343 12.4737C14.8356 16.1524 14.6334 18.7469 14.3032 20.242C13.9463 21.7097 13.3427 23.0459 12.4652 24.2512L12.3992 24.3416L12.3052 25.5376C12.2209 26.5825 12.0811 27.6283 11.8836 28.7037L11.7964 29.1766H13.2441L13.3094 28.8481C13.4985 27.8912 13.7143 26.8903 14.0016 25.8681C14.4308 25.5892 14.8196 25.4262 15.2572 25.3377C15.5939 25.2661 16.3596 25.2066 17.4554 25.182H18.4411C20.3227 25.176 21.5237 25.2511 21.8038 25.3525C22.1282 25.4548 22.4303 25.6101 22.6969 25.8178C22.7739 26.8625 22.8262 27.8364 22.8527 28.7841L22.8637 29.1766H24.2647V28.7738C24.2647 27.271 24.3773 25.7417 24.6012 24.2121L24.669 23.7533H23.2458C23.0102 23.7553 22.8616 23.7098 22.8072 23.676Z" fill="#FFF200"/>
<path d="M42.3811 23.6813C42.3082 23.6135 42.0828 23.3509 41.8131 22.9361L37.3096 16.048L39.4922 12.3178C40.0188 11.4665 40.4695 10.8308 40.8167 10.5031C41.1611 10.1767 41.5088 10.0235 41.8537 10.0235H42.2808H42.7021V8.46039L42.229 8.51593C41.7859 8.56823 41.4067 8.59445 41.0296 8.59507C40.6515 8.59507 40.2415 8.56823 39.7394 8.5147L39.2719 8.46564V9.5969L37.5633 12.4932C36.8602 13.7375 36.2852 14.7014 35.8497 15.3796V13.5339C35.8497 12.5169 35.8565 11.7254 35.8741 11.1587C35.8872 10.6021 35.9293 10.2271 35.9453 10.1973L35.9487 10.1864L35.9532 10.1711C35.9532 10.1711 35.9364 10.0947 36.3101 10.079H36.3269L37.3282 9.98675V8.49372L36.8875 8.51439C35.6408 8.56622 34.9188 8.59507 34.7455 8.59507C34.5459 8.59507 33.9701 8.56622 33.0973 8.54123C32.8053 8.51439 32.6209 8.51346 32.5851 8.51346H32.1638V10.0102L32.5712 10.0235C32.9949 10.0363 33.3066 10.073 33.4726 10.12C33.5199 10.1328 33.5535 10.147 33.5741 10.1571C33.6145 10.4343 33.6739 11.6211 33.6697 13.5339L33.6702 15.4016C33.2675 14.7662 32.6828 13.7911 31.9287 12.4952L30.2475 9.59845V8.46564L29.7803 8.5147C29.2796 8.56823 28.8397 8.59507 28.4619 8.59507C28.1139 8.59507 27.7024 8.56823 27.2622 8.51593L26.7891 8.45962V10.0235H27.6367C27.9656 10.0238 28.3098 10.1571 28.6468 10.4761C28.9968 10.7848 29.4726 11.4131 29.999 12.3178L32.208 16.0486L27.6771 22.9361C27.4277 23.3376 27.2306 23.5965 27.1392 23.6813C27.1009 23.7231 27.0111 23.7569 26.9829 23.7534H26.7841H26.3628V25.3245L26.8435 25.2591C27.2277 25.2071 27.5482 25.1821 27.836 25.1821C28.1237 25.1821 28.4758 25.2071 28.8242 25.2591L29.1005 25.2995L33.6705 18.1813L33.6697 21.0313C33.6705 21.8438 33.6626 22.4797 33.6454 22.9317C33.6365 23.1571 33.626 23.3376 33.6121 23.4664C33.6058 23.5312 33.5977 23.5831 33.5917 23.6187C33.5854 23.6531 33.5812 23.6591 33.583 23.66L33.5716 23.6886L33.5687 23.7036C33.5341 23.7208 33.4006 23.7562 33.1819 23.7534H32.1638V25.2922L32.615 25.2626C33.4022 25.2086 34.1031 25.1821 34.7455 25.1824C35.388 25.1821 36.1171 25.2086 36.8762 25.2626L37.3282 25.2935V23.7534H36.3383C36.1294 23.7546 35.9836 23.7252 35.9267 23.7015C35.9217 23.6994 35.9175 23.6974 35.9141 23.6963C35.8835 23.4914 35.8445 22.5158 35.8497 21.0313V18.2219L40.4488 25.2987L40.7243 25.2591C41.076 25.2071 41.3954 25.1821 41.6835 25.1821C41.9712 25.1821 42.2926 25.2071 42.6759 25.2591L43.1567 25.3245V23.7534H42.5083C42.4864 23.7534 42.4494 23.7446 42.3811 23.6813Z" fill="#FFF200"/>
<path d="M55.3106 8.59461L53.8337 8.49325L51.1836 14.2682L48.7981 19.2339L47.9518 20.9731V13.3449C47.9518 12.3559 47.967 11.5864 47.9915 11.0373C48.0096 10.5332 48.0563 10.1807 48.0706 10.1339L48.0714 10.1344C48.0819 10.1114 48.2969 10.0173 48.697 10.0241L49.0387 10.0233H49.46V9.62159V8.47628L49.0025 8.51423C48.3637 8.56684 47.6081 8.59461 46.6783 8.59461C46.036 8.59461 45.3069 8.56777 44.5179 8.51423L44.0679 8.48307V10.0233H45.0579C45.2588 10.0225 45.3973 10.0551 45.4598 10.0869C45.5222 10.1224 45.5167 10.1223 45.5327 10.1617C45.5887 10.2985 45.6665 11.4705 45.6607 13.3449V20.2706C45.6607 21.6775 45.6324 23.2429 45.5183 25.0829L45.485 25.6222L46.0352 25.4991C46.4707 25.4016 46.8153 25.31 47.0816 25.221C47.3507 25.1199 47.5289 25.0701 47.7189 24.8675C47.8449 24.7051 47.9821 24.4382 48.2765 23.8697C48.5593 23.3146 48.9515 22.5178 49.4501 21.4682L53.5985 12.6649C53.5931 13.1027 53.5931 13.4574 53.5931 13.7241V19.8628C53.5931 21.0003 53.5792 21.8795 53.5511 22.5041C53.5283 23.1186 53.4676 23.5268 53.4487 23.5553C53.3914 23.6651 53.3712 23.7324 52.9331 23.7534H52.3934H51.9721V25.2967L52.4272 25.2615C53.1251 25.2085 53.9091 25.1819 54.8114 25.1819C55.6547 25.1819 56.3821 25.2085 57.0203 25.2615L57.4783 25.3003V23.7534H56.4596C56.2494 23.7542 56.1129 23.7156 56.0574 23.6837C56.0039 23.6474 56.0094 23.6526 55.9935 23.5988L55.9901 23.5771L55.9849 23.5605C55.9277 23.4092 55.8804 22.1193 55.8864 19.9441V13.7241C55.8864 12.6391 55.8935 11.7916 55.9108 11.1881C55.9243 10.596 55.9665 10.1955 55.982 10.1706L55.9883 10.1489L55.9925 10.1287C56.0048 10.1018 55.9796 10.1224 56.0369 10.0869C56.0944 10.0574 56.2428 10.0225 56.4596 10.0233H57.4783V8.48955L57.0343 8.51331C56.0506 8.56607 55.4753 8.59337 55.3106 8.59461Z" fill="#FFF200"/>
<path d="M134.15 8.59506L132.674 8.49401L130.024 14.2682L127.639 19.2339L126.792 20.9733V13.3446C126.792 12.3562 126.807 11.5856 126.832 11.0372C126.85 10.5332 126.896 10.1806 126.91 10.1344H126.911C126.922 10.1114 127.138 10.0177 127.538 10.0238H127.879H128.299V9.62126V8.47596L127.842 8.51422C127.205 8.56729 126.448 8.59506 125.52 8.59429C124.877 8.59506 124.147 8.56729 123.359 8.51422L122.908 8.48321V10.0238H123.898C124.1 10.0228 124.238 10.0558 124.299 10.0869C124.362 10.1223 124.357 10.1223 124.373 10.1614C124.429 10.2977 124.506 11.471 124.501 13.3446V20.2706C124.501 21.678 124.473 23.2438 124.36 25.0833L124.325 25.6214L124.875 25.4991C125.312 25.4013 125.656 25.3107 125.922 25.2209C126.191 25.1196 126.369 25.0701 126.559 24.8675C126.685 24.7051 126.822 24.4377 127.117 23.8697C127.4 23.3146 127.791 22.5183 128.29 21.4686L132.439 12.6666C132.434 13.1031 132.434 13.4578 132.434 13.7242V19.8633C132.434 21.0003 132.42 21.8794 132.391 22.5045C132.369 23.119 132.308 23.5271 132.289 23.5553C132.231 23.6648 132.211 23.7315 131.774 23.7534H131.233H130.812V25.2967L131.266 25.262C131.965 25.2084 132.75 25.1821 133.651 25.1821C134.495 25.1821 135.222 25.2084 135.861 25.262L136.319 25.2998V23.7534H135.3C135.09 23.7541 134.952 23.7156 134.898 23.6841C134.844 23.6466 134.85 23.6531 134.834 23.5988L134.83 23.5786L134.825 23.561C134.768 23.4083 134.72 22.1193 134.727 19.9441V13.7242C134.727 12.6396 134.734 11.7929 134.751 11.188C134.764 10.5956 134.807 10.1964 134.822 10.1702L134.83 10.1461L134.833 10.1287C134.845 10.1023 134.821 10.1223 134.878 10.0869C134.934 10.0575 135.083 10.0221 135.3 10.0238H136.319V8.48954L135.875 8.51345C134.89 8.56605 134.313 8.59305 134.15 8.59506Z" fill="#FFF200"/>
<path d="M69.1893 8.59424C68.49 8.59424 67.731 8.56817 66.9732 8.51417L66.5212 8.48239V10.0237H67.4833C67.6353 10.0237 67.752 10.0415 67.8211 10.062C67.8565 10.0732 67.8793 10.084 67.8898 10.091L67.8914 10.0893C67.9345 10.1388 68.0002 10.2644 68.0002 10.4908V10.5118L68.0015 10.5288C68.0843 11.3751 68.1139 12.4524 68.1131 13.724V15.5199C67.4268 15.5572 66.5923 15.5762 65.5785 15.5753C64.3614 15.5762 63.3349 15.5557 62.502 15.5157V13.3445C62.5001 11.7744 62.5046 10.7497 62.5548 10.4077C62.5813 10.1521 62.6268 10.099 62.6339 10.095L62.6494 10.0805C62.6942 10.0603 62.901 10.0197 63.2178 10.0237H63.5577H63.9789V8.47962L63.5261 8.51417C62.8256 8.56817 62.1251 8.59424 61.3976 8.59424C60.6692 8.59424 59.8823 8.56817 59.037 8.51417L58.5879 8.48517V10.0237H59.606C59.9936 10.0374 60.0336 10.1086 60.0685 10.1791C60.08 10.1794 60.1389 10.5478 60.1528 11.0829C60.1738 11.629 60.1806 12.3931 60.1806 13.3703V20.1354C60.1806 21.2059 60.1738 22.0389 60.1528 22.6301C60.1389 23.208 60.0792 23.5964 60.0685 23.597L60.0614 23.6128L60.0559 23.631C60.0509 23.637 60.064 23.6438 59.9781 23.6845C59.8949 23.7206 59.7249 23.7541 59.4923 23.7533H59.0092H58.5879V25.2841L59.0297 25.2624C60.1641 25.2086 61.0112 25.182 61.5972 25.182C62.2105 25.182 62.8529 25.2086 63.524 25.2618L63.9789 25.2974V23.7533H63.019C62.7809 23.7501 62.7266 23.7123 62.6925 23.6813C62.6541 23.6458 62.6276 23.6152 62.615 23.598V23.5883L62.604 23.5441C62.5863 23.4506 62.5543 22.868 62.5294 21.9709C62.502 21.2416 62.5013 20.6239 62.5013 20.0806L62.5017 17.3077C63.2911 17.2696 64.3716 17.2494 65.7195 17.2502C66.6564 17.2499 67.4559 17.2687 68.1139 17.3054V19.8632C68.1139 21.3246 68.0843 22.4607 68.0288 23.1742C68.017 23.3274 67.9921 23.4587 67.9644 23.5468C67.9505 23.5918 67.9348 23.6265 67.9256 23.6446C67.9214 23.6527 67.918 23.658 67.9167 23.6608L67.9075 23.6688L67.8923 23.6873L67.8914 23.6853C67.8615 23.7069 67.7078 23.7561 67.4546 23.7533H66.9428H66.5212V25.2949L66.9745 25.2618C67.7011 25.2086 68.5148 25.182 69.3591 25.1828C70.1166 25.182 70.8452 25.2086 71.5437 25.2618L71.9983 25.2966V23.7533H70.9805C70.5487 23.7377 70.5395 23.6612 70.5301 23.631L70.5238 23.614L70.5175 23.5983C70.5162 23.5983 70.5107 23.5798 70.5023 23.5307C70.4311 23.1589 70.4046 21.9291 70.4067 19.9447V13.724C70.4054 11.9368 70.4075 10.8603 70.4324 10.5484C70.4473 10.3164 70.4978 10.1497 70.5254 10.0888C70.5794 10.0655 70.7391 10.0205 70.9805 10.0237H71.9983V8.48517L71.5482 8.51417C70.732 8.56724 69.9467 8.59424 69.1893 8.59424Z" fill="#FFF200"/>
<path d="M73.5088 8.51288L73.043 8.5044L73.0799 8.94792C73.1659 9.94312 73.1936 10.7208 73.1928 11.252L73.1558 12.9861H74.4887L74.6319 11.1179C74.6453 10.8234 74.6736 10.612 74.706 10.4877C74.7115 10.4636 74.7186 10.4422 74.7245 10.4252C74.9441 10.3896 75.6071 10.3468 76.5427 10.3506H76.9285C76.9529 11.3022 76.9752 12.3325 76.9752 13.4247V19.8356C76.9752 21.1893 76.9453 22.3233 76.8892 23.1511C76.8763 23.3272 76.8561 23.4723 76.8329 23.5661C76.8211 23.6127 76.8092 23.6462 76.8004 23.6632C76.7999 23.6638 76.7995 23.6655 76.7995 23.6667L76.7748 23.69L76.763 23.7098C76.7297 23.7238 76.6243 23.756 76.4579 23.754H75.3817V25.2898L75.8299 25.262C76.7048 25.2085 77.4938 25.1823 78.1071 25.1823C78.7482 25.1823 79.5086 25.2085 80.4121 25.2628L80.8595 25.2898V23.754H79.87C79.6531 23.754 79.4997 23.7218 79.4253 23.6885C79.3557 23.6559 79.362 23.6462 79.3594 23.6474C79.3583 23.6491 79.3541 23.6302 79.3473 23.5805C79.2921 23.2031 79.2659 21.9483 79.2682 19.8903L79.2672 13.4802C79.2672 12.402 79.29 11.3461 79.3334 10.3506H79.5293C80.2572 10.3506 80.8381 10.3766 81.3924 10.4294C81.4194 10.4329 81.4454 10.4386 81.4653 10.4439C81.482 10.5488 81.5103 10.8056 81.5252 11.1376L81.6313 12.9861H82.9249L82.935 12.5941C82.9636 11.4294 83.0201 10.2129 83.1056 8.94114L83.1354 8.50409L78.4391 8.59495C77.9466 8.59495 76.3223 8.56734 73.5088 8.51288Z" fill="#FFF200"/>
<path d="M88.0447 15.7273L88.0442 13.5606C88.0442 12.4543 88.045 11.3758 88.0885 10.3942C88.5493 10.191 88.9537 10.1057 89.3289 10.1049C90.1142 10.1125 90.6298 10.3499 91.0074 10.8369C91.3872 11.3323 91.5809 12.0575 91.5809 13.0712C91.5803 14.1136 91.3889 14.8742 91.0195 15.44C90.6471 15.9647 90.2528 16.1636 89.6706 16.1733C89.4352 16.1744 89.11 16.1088 88.6816 15.9544L88.0447 15.7273ZM90.0692 8.43153C89.7837 8.43153 89.414 8.45976 88.9617 8.48784C88.2587 8.51314 87.61 8.5406 87.0256 8.5406C86.0315 8.5406 85.2093 8.5406 84.5997 8.51314L84.1592 8.49308V10.0236H84.949C85.1744 10.0227 85.3462 10.0501 85.4431 10.0832C85.4919 10.0997 85.5219 10.1169 85.5335 10.125L85.5411 10.1282L85.5484 10.1442L85.561 10.1628C85.5981 10.1643 85.7118 10.8014 85.7228 11.7521L85.7514 14.0556V20.0257C85.7228 21.8342 85.6945 22.9036 85.6676 23.2276C85.655 23.3908 85.6343 23.5206 85.6128 23.603C85.601 23.6441 85.59 23.6725 85.5834 23.6847C85.5825 23.6863 85.5821 23.6875 85.5817 23.6884L85.5723 23.698L85.5618 23.7102C85.5379 23.7222 85.4397 23.7544 85.2627 23.7535H84.1592V25.2828L84.6007 25.2623C85.7636 25.2088 86.5854 25.1822 87.0539 25.1822C87.5514 25.1822 88.2851 25.2088 89.1896 25.2623L89.6358 25.2897V23.7535H88.6753C88.4579 23.7535 88.3076 23.721 88.2385 23.6884C88.1673 23.6522 88.179 23.6502 88.1697 23.6329L88.1623 23.6124L88.1566 23.5974C88.1558 23.5974 88.1508 23.5797 88.1411 23.5309C88.0707 23.1596 88.0421 21.9328 88.0455 19.9714L88.0447 15.9599L88.3008 17.488L88.5561 17.5596C89.0527 17.6976 89.4512 17.7917 89.8408 17.7934C90.6332 17.7954 91.3589 17.5012 92.0329 17.0019C92.6943 16.492 93.1961 15.8291 93.531 15.0118C93.8894 14.2154 94.073 13.3702 94.0722 12.5013C94.074 11.3255 93.7685 10.3254 93.1261 9.55987C92.4495 8.78281 91.3889 8.42752 90.0692 8.43153Z" fill="#FFF200"/>
<path d="M97.5318 15.9781C97.531 14.7365 97.6987 13.6367 98.02 12.7401C98.3475 11.8027 98.7694 11.1372 99.2981 10.6804C99.7901 10.2989 100.325 10.075 100.954 10.0317V10.0365L101.265 10.0485L101.795 10.3089V10.094C102.337 10.1826 102.797 10.4035 103.217 10.7825C103.835 11.2989 104.314 12.0667 104.668 13.1626C105.05 14.2263 105.22 15.5439 105.22 17.1193C105.22 18.6116 105.051 19.8499 104.726 20.8584C104.398 21.8778 103.971 22.5926 103.432 23.0349C102.911 23.5024 102.385 23.7241 101.744 23.7504L101.405 23.7274C100.735 23.6771 100.165 23.4313 99.6267 22.9201C99.0071 22.3544 98.4931 21.4955 98.1111 20.2902C97.7285 19.0892 97.531 17.6309 97.5318 15.9781ZM101.795 8.27255V8.25481L101.361 8.269H100.954V8.29307C99.275 8.44966 97.8721 9.28225 96.8241 10.692C95.6787 12.3058 95.1245 14.3764 95.1245 16.9021C95.1245 18.5673 95.3574 20.0519 95.8305 21.3784C96.3333 22.7124 97.0277 23.7021 97.8882 24.4063C98.7518 25.1234 99.7783 25.4908 100.954 25.509V25.5385L101.391 25.5098H101.795V25.4695C103.414 25.2514 104.782 24.3303 105.847 22.8047C107.1 21.0673 107.683 18.8873 107.683 16.3318C107.683 13.9707 107.188 12.0349 106.1 10.5335C105.064 9.11811 103.591 8.33087 101.795 8.27255Z" fill="#FFF200"/>
<path d="M115.33 8.59506C114.285 8.59506 112.152 8.56683 108.827 8.51299L108.398 8.50604V10.0238H109.417C109.808 10.0438 109.843 10.1055 109.898 10.2137C109.952 10.4491 109.995 11.5723 109.989 13.345L109.988 20.1076C109.994 22.1781 109.95 23.3972 109.889 23.5971C109.891 23.6181 109.818 23.7432 109.303 23.7534H108.818H108.398V25.2851L108.841 25.2624C109.917 25.2084 110.763 25.1821 111.405 25.1821C112.078 25.1821 112.719 25.2084 113.33 25.2617L113.789 25.301V23.7534H112.857C112.707 23.7517 112.601 23.7251 112.463 23.6551C112.465 23.6556 112.465 23.6551 112.465 23.6551C112.444 23.6366 112.383 23.4769 112.367 23.1798L112.339 21.9995C112.311 21.2675 112.311 20.6513 112.311 20.1076V13.37C112.311 12.3764 112.311 11.3872 112.351 10.404C112.988 10.3682 114.023 10.35 115.414 10.3508C116.355 10.35 117.057 10.3661 117.534 10.3976C117.586 12.2698 117.611 13.3788 117.611 13.7242V19.8903C117.616 22.0275 117.547 23.3171 117.49 23.5625C117.448 23.6543 117.369 23.7404 116.98 23.7534H116.44H116.019V24.1557V25.2959L116.473 25.2617C117.169 25.2084 117.954 25.1821 118.829 25.1827C119.7 25.1821 120.428 25.2084 121.035 25.2617L121.495 25.301V23.7534H120.476C120.036 23.7251 120.051 23.6792 120.005 23.5698C119.961 23.2941 119.902 22.0272 119.903 19.9441V13.7242C119.902 11.6745 119.936 10.4451 119.982 10.2049L119.986 10.1862L119.987 10.1706C119.997 10.1263 119.985 10.1404 120.037 10.1018C120.092 10.0671 120.24 10.0221 120.476 10.0238H121.495V8.50497L121.065 8.51299C117.884 8.56683 115.974 8.59506 115.33 8.59506Z" fill="#FFF200"/>
<path d="M149.593 10.5486L149.594 10.5338V10.5185C149.591 10.3056 149.645 10.1546 149.68 10.092C149.728 10.0665 149.889 10.0218 150.139 10.0235H151.129V8.48415L150.679 8.51316C149.862 8.567 149.075 8.59523 148.319 8.59523C147.62 8.59523 146.89 8.567 146.103 8.51316L145.652 8.48338V10.0235H146.641C146.793 10.0235 146.899 10.0415 146.959 10.0608C147.019 10.0805 147.02 10.0915 147.021 10.0895L147.037 10.1075L147.055 10.1253C147.074 10.1341 147.138 10.2509 147.159 10.5241C147.214 11.3729 147.244 12.4517 147.243 13.725V15.5204C146.569 15.557 145.722 15.5755 144.736 15.5755C143.519 15.5755 142.472 15.555 141.633 15.5164V13.3452C141.632 11.7732 141.661 10.7692 141.687 10.382C141.712 10.1501 141.757 10.0991 141.763 10.0975L141.775 10.0858C141.823 10.0613 142.053 10.0202 142.375 10.0235H142.688H143.11V8.47922L142.656 8.51316C141.955 8.567 141.257 8.59446 140.528 8.59523C139.8 8.59446 139.041 8.567 138.195 8.51316L137.747 8.4857V10.0235H138.737C139.167 10.0383 139.177 10.116 139.186 10.145L139.191 10.1611L139.197 10.1768C139.211 10.1873 139.275 10.5531 139.297 11.0875C139.325 11.6336 139.34 12.3958 139.339 13.3708V20.1351C139.34 21.2039 139.325 22.0354 139.3 22.6274C139.281 23.1587 139.239 23.5269 139.219 23.6158C139.19 23.6648 139.084 23.7454 138.651 23.7538H138.168H137.747V25.2841L138.189 25.2631C139.293 25.2086 140.171 25.1821 140.755 25.1821C141.369 25.1821 142.011 25.2086 142.652 25.2621L143.11 25.2996V23.7538H142.177C142.063 23.7538 141.972 23.741 141.923 23.7256C141.898 23.7196 141.883 23.7123 141.878 23.7093L141.877 23.7088L141.852 23.6793L141.814 23.6505C141.74 23.5869 141.749 23.5848 141.732 23.5414C141.716 23.4286 141.684 22.8512 141.66 21.9711C141.633 21.2417 141.632 20.6237 141.632 20.0813L141.633 17.308C142.422 17.2694 143.507 17.2493 144.878 17.2493C145.814 17.2493 146.593 17.2686 147.244 17.3052V19.8635C147.244 21.3239 147.214 22.4612 147.159 23.1744C147.146 23.3381 147.127 23.4769 147.104 23.5676C147.092 23.6122 147.079 23.6452 147.072 23.6605C147.071 23.6625 147.07 23.6642 147.069 23.6653L147.062 23.6713L147.051 23.6866L147.05 23.6858C147.021 23.7059 146.865 23.7549 146.613 23.7538H146.074H145.652V25.2952L146.106 25.2621C146.83 25.2086 147.644 25.1821 148.518 25.1821C149.246 25.1821 149.974 25.2086 150.674 25.2621L151.129 25.2964V23.7538H150.11C149.68 23.7369 149.671 23.6613 149.66 23.6312C149.644 23.6017 149.595 23.1972 149.575 22.5836C149.55 21.9606 149.536 21.082 149.536 19.9448V13.725C149.536 11.9383 149.566 10.8738 149.593 10.5486Z" fill="#FFF200"/>
<path d="M157.569 2.77655C159.46 2.77655 160.999 4.24659 160.999 6.05325C160.999 7.85976 159.46 9.3298 157.569 9.3298C155.68 9.3298 154.14 7.85976 154.14 6.05325C154.14 4.24659 155.68 2.77655 157.569 2.77655ZM153.497 6.05325C153.497 8.199 155.325 9.94318 157.569 9.94318C159.815 9.94318 161.642 8.199 161.642 6.05325C161.642 3.90781 159.815 2.16317 157.569 2.16317C155.325 2.16317 153.497 3.90781 153.497 6.05325Z" fill="#FFF200"/>
<path d="M157.001 5.82234H157.824C158.33 5.82234 158.403 5.54018 158.403 5.36354C158.403 5.00455 158.179 4.89641 157.791 4.89641H157.001V5.82234ZM156.1 4.18723H158.054C158.442 4.18723 159.351 4.28102 159.351 5.2247C159.351 5.83962 158.937 6.05174 158.686 6.13582V6.14801C159.216 6.2924 159.225 6.76571 159.232 7.03213C159.244 7.49494 159.244 7.64582 159.378 7.83418H158.463C158.298 7.60633 158.358 7.46347 158.31 6.90655C158.272 6.46904 157.798 6.48925 157.693 6.48925H157.001V7.83418H156.1V4.18723Z" fill="#FFF200"/>
<path fill-rule="evenodd" clip-rule="evenodd" d="M168 28.2855C168 30.8888 166.115 33 163.792 33H4.20815C1.88397 33 -0.000488281 30.8888 -0.000488281 28.2855V4.71498C-0.000488281 2.11121 1.88397 1.52382e-05 4.20815 1.52382e-05H163.792C166.115 1.52382e-05 168 2.11121 168 4.71498V28.2855Z" fill="#182F67"/>
<path fill-rule="evenodd" clip-rule="evenodd" d="M168 28.2855C168 30.8888 166.115 33 163.792 33H4.20815C1.88397 33 -0.000488281 30.8888 -0.000488281 28.2855V4.71498C-0.000488281 2.11121 1.88397 1.52382e-05 4.20815 1.52382e-05H163.792C166.115 1.52382e-05 168 2.11121 168 4.71498V28.2855Z" fill="#182F67"/>
<path d="M16.0425 19.1575C16.2695 17.4551 16.3811 14.5351 16.3884 10.3807C16.7291 10.3617 17.0915 10.3432 17.4541 10.3227H18.526C19.2734 10.3227 19.8741 10.3392 20.3046 10.369C20.354 12.0174 20.38 13.1224 20.38 13.6968V20.1076C20.38 20.6818 20.354 21.7853 20.3046 23.3646C19.8476 23.4089 19.2747 23.4254 18.6116 23.4254C18.412 23.4254 18.1614 23.4254 17.8664 23.4164V23.3991H17.4541L17.024 23.3751V23.3971C16.4057 23.3914 15.6469 23.3738 14.767 23.3424C15.3925 22.0988 15.8163 20.6968 16.0425 19.1575ZM22.8072 23.676C22.7537 23.6366 22.7668 23.6503 22.7554 23.6048L22.7537 23.5883L22.7529 23.577C22.7045 23.2985 22.6703 22.1048 22.672 20.0806V13.7245C22.6694 11.6746 22.7053 10.4455 22.752 10.2036L22.7545 10.1839L22.7554 10.1714C22.7676 10.1263 22.7512 10.1444 22.8064 10.1033C22.8637 10.0683 23.0216 10.022 23.2743 10.024L24.2647 10.023V8.51295H23.2458L18.5155 8.62002H17.8664H17.4456C15.9485 8.62002 14.7062 8.56803 13.6873 8.51419L13.2429 8.48966V10.023H14.2328C14.47 10.023 14.6115 10.0663 14.6675 10.1033C14.7209 10.1424 14.7329 10.1505 14.7536 10.2483C14.8047 10.5806 14.8356 11.3434 14.8343 12.4737C14.8356 16.1524 14.6334 18.7469 14.3032 20.242C13.9463 21.7097 13.3427 23.0459 12.4652 24.2512L12.3992 24.3416L12.3052 25.5376C12.2209 26.5825 12.0811 27.6283 11.8836 28.7037L11.7964 29.1766H13.2441L13.3094 28.8481C13.4985 27.8912 13.7143 26.8903 14.0016 25.8681C14.4308 25.5892 14.8196 25.4262 15.2572 25.3377C15.5939 25.2661 16.3596 25.2066 17.4554 25.182H18.4411C20.3227 25.176 21.5237 25.2511 21.8038 25.3525C22.1282 25.4548 22.4303 25.6101 22.6969 25.8178C22.7739 26.8625 22.8262 27.8364 22.8527 28.7841L22.8637 29.1766H24.2647V28.7738C24.2647 27.271 24.3773 25.7417 24.6012 24.2121L24.669 23.7533H23.2458C23.0102 23.7553 22.8616 23.7098 22.8072 23.676Z" fill="#FFF200"/>
<path d="M42.3811 23.6813C42.3082 23.6135 42.0828 23.3509 41.8131 22.9361L37.3096 16.048L39.4922 12.3178C40.0188 11.4665 40.4695 10.8308 40.8167 10.5031C41.1611 10.1767 41.5088 10.0235 41.8537 10.0235H42.2808H42.7021V8.46039L42.229 8.51593C41.7859 8.56823 41.4067 8.59445 41.0296 8.59507C40.6515 8.59507 40.2415 8.56823 39.7394 8.5147L39.2719 8.46564V9.5969L37.5633 12.4932C36.8602 13.7375 36.2852 14.7014 35.8497 15.3796V13.5339C35.8497 12.5169 35.8565 11.7254 35.8741 11.1587C35.8872 10.6021 35.9293 10.2271 35.9453 10.1973L35.9487 10.1864L35.9532 10.1711C35.9532 10.1711 35.9364 10.0947 36.3101 10.079H36.3269L37.3282 9.98675V8.49372L36.8875 8.51439C35.6408 8.56622 34.9188 8.59507 34.7455 8.59507C34.5459 8.59507 33.9701 8.56622 33.0973 8.54123C32.8053 8.51439 32.6209 8.51346 32.5851 8.51346H32.1638V10.0102L32.5712 10.0235C32.9949 10.0363 33.3066 10.073 33.4726 10.12C33.5199 10.1328 33.5535 10.147 33.5741 10.1571C33.6145 10.4343 33.6739 11.6211 33.6697 13.5339L33.6702 15.4016C33.2675 14.7662 32.6828 13.7911 31.9287 12.4952L30.2475 9.59845V8.46564L29.7803 8.5147C29.2796 8.56823 28.8397 8.59507 28.4619 8.59507C28.1139 8.59507 27.7024 8.56823 27.2622 8.51593L26.7891 8.45962V10.0235H27.6367C27.9656 10.0238 28.3098 10.1571 28.6468 10.4761C28.9968 10.7848 29.4726 11.4131 29.999 12.3178L32.208 16.0486L27.6771 22.9361C27.4277 23.3376 27.2306 23.5965 27.1392 23.6813C27.1009 23.7231 27.0111 23.7569 26.9829 23.7534H26.7841H26.3628V25.3245L26.8435 25.2591C27.2277 25.2071 27.5482 25.1821 27.836 25.1821C28.1237 25.1821 28.4758 25.2071 28.8242 25.2591L29.1005 25.2995L33.6705 18.1813L33.6697 21.0313C33.6705 21.8438 33.6626 22.4797 33.6454 22.9317C33.6365 23.1571 33.626 23.3376 33.6121 23.4664C33.6058 23.5312 33.5977 23.5831 33.5917 23.6187C33.5854 23.6531 33.5812 23.6591 33.583 23.66L33.5716 23.6886L33.5687 23.7036C33.5341 23.7208 33.4006 23.7562 33.1819 23.7534H32.1638V25.2922L32.615 25.2626C33.4022 25.2086 34.1031 25.1821 34.7455 25.1824C35.388 25.1821 36.1171 25.2086 36.8762 25.2626L37.3282 25.2935V23.7534H36.3383C36.1294 23.7546 35.9836 23.7252 35.9267 23.7015C35.9217 23.6994 35.9175 23.6974 35.9141 23.6963C35.8835 23.4914 35.8445 22.5158 35.8497 21.0313V18.2219L40.4488 25.2987L40.7243 25.2591C41.076 25.2071 41.3954 25.1821 41.6835 25.1821C41.9712 25.1821 42.2926 25.2071 42.6759 25.2591L43.1567 25.3245V23.7534H42.5083C42.4864 23.7534 42.4494 23.7446 42.3811 23.6813Z" fill="#FFF200"/>
<path d="M55.3106 8.59461L53.8337 8.49325L51.1836 14.2682L48.7981 19.2339L47.9518 20.9731V13.3449C47.9518 12.3559 47.967 11.5864 47.9915 11.0373C48.0096 10.5332 48.0563 10.1807 48.0706 10.1339L48.0714 10.1344C48.0819 10.1114 48.2969 10.0173 48.697 10.0241L49.0387 10.0233H49.46V9.62159V8.47628L49.0025 8.51423C48.3637 8.56684 47.6081 8.59461 46.6783 8.59461C46.036 8.59461 45.3069 8.56777 44.5179 8.51423L44.0679 8.48307V10.0233H45.0579C45.2588 10.0225 45.3973 10.0551 45.4598 10.0869C45.5222 10.1224 45.5167 10.1223 45.5327 10.1617C45.5887 10.2985 45.6665 11.4705 45.6607 13.3449V20.2706C45.6607 21.6775 45.6324 23.2429 45.5183 25.0829L45.485 25.6222L46.0352 25.4991C46.4707 25.4016 46.8153 25.31 47.0816 25.221C47.3507 25.1199 47.5289 25.0701 47.7189 24.8675C47.8449 24.7051 47.9821 24.4382 48.2765 23.8697C48.5593 23.3146 48.9515 22.5178 49.4501 21.4682L53.5985 12.6649C53.5931 13.1027 53.5931 13.4574 53.5931 13.7241V19.8628C53.5931 21.0003 53.5792 21.8795 53.5511 22.5041C53.5283 23.1186 53.4676 23.5268 53.4487 23.5553C53.3914 23.6651 53.3712 23.7324 52.9331 23.7534H52.3934H51.9721V25.2967L52.4272 25.2615C53.1251 25.2085 53.9091 25.1819 54.8114 25.1819C55.6547 25.1819 56.3821 25.2085 57.0203 25.2615L57.4783 25.3003V23.7534H56.4596C56.2494 23.7542 56.1129 23.7156 56.0574 23.6837C56.0039 23.6474 56.0094 23.6526 55.9935 23.5988L55.9901 23.5771L55.9849 23.5605C55.9277 23.4092 55.8804 22.1193 55.8864 19.9441V13.7241C55.8864 12.6391 55.8935 11.7916 55.9108 11.1881C55.9243 10.596 55.9665 10.1955 55.982 10.1706L55.9883 10.1489L55.9925 10.1287C56.0048 10.1018 55.9796 10.1224 56.0369 10.0869C56.0944 10.0574 56.2428 10.0225 56.4596 10.0233H57.4783V8.48955L57.0343 8.51331C56.0506 8.56607 55.4753 8.59337 55.3106 8.59461Z" fill="#FFF200"/>
<path d="M134.15 8.59506L132.674 8.49401L130.024 14.2682L127.639 19.2339L126.792 20.9733V13.3446C126.792 12.3562 126.807 11.5856 126.832 11.0372C126.85 10.5332 126.896 10.1806 126.91 10.1344H126.911C126.922 10.1114 127.138 10.0177 127.538 10.0238H127.879H128.299V9.62126V8.47596L127.842 8.51422C127.205 8.56729 126.448 8.59506 125.52 8.59429C124.877 8.59506 124.147 8.56729 123.359 8.51422L122.908 8.48321V10.0238H123.898C124.1 10.0228 124.238 10.0558 124.299 10.0869C124.362 10.1223 124.357 10.1223 124.373 10.1614C124.429 10.2977 124.506 11.471 124.501 13.3446V20.2706C124.501 21.678 124.473 23.2438 124.36 25.0833L124.325 25.6214L124.875 25.4991C125.312 25.4013 125.656 25.3107 125.922 25.2209C126.191 25.1196 126.369 25.0701 126.559 24.8675C126.685 24.7051 126.822 24.4377 127.117 23.8697C127.4 23.3146 127.791 22.5183 128.29 21.4686L132.439 12.6666C132.434 13.1031 132.434 13.4578 132.434 13.7242V19.8633C132.434 21.0003 132.42 21.8794 132.391 22.5045C132.369 23.119 132.308 23.5271 132.289 23.5553C132.231 23.6648 132.211 23.7315 131.774 23.7534H131.233H130.812V25.2967L131.266 25.262C131.965 25.2084 132.75 25.1821 133.651 25.1821C134.495 25.1821 135.222 25.2084 135.861 25.262L136.319 25.2998V23.7534H135.3C135.09 23.7541 134.952 23.7156 134.898 23.6841C134.844 23.6466 134.85 23.6531 134.834 23.5988L134.83 23.5786L134.825 23.561C134.768 23.4083 134.72 22.1193 134.727 19.9441V13.7242C134.727 12.6396 134.734 11.7929 134.751 11.188C134.764 10.5956 134.807 10.1964 134.822 10.1702L134.83 10.1461L134.833 10.1287C134.845 10.1023 134.821 10.1223 134.878 10.0869C134.934 10.0575 135.083 10.0221 135.3 10.0238H136.319V8.48954L135.875 8.51345C134.89 8.56605 134.313 8.59305 134.15 8.59506Z" fill="#FFF200"/>
<path d="M69.1893 8.59424C68.49 8.59424 67.731 8.56817 66.9732 8.51417L66.5212 8.48239V10.0237H67.4833C67.6353 10.0237 67.752 10.0415 67.8211 10.062C67.8565 10.0732 67.8793 10.084 67.8898 10.091L67.8914 10.0893C67.9345 10.1388 68.0002 10.2644 68.0002 10.4908V10.5118L68.0015 10.5288C68.0843 11.3751 68.1139 12.4524 68.1131 13.724V15.5199C67.4268 15.5572 66.5923 15.5762 65.5785 15.5753C64.3614 15.5762 63.3349 15.5557 62.502 15.5157V13.3445C62.5001 11.7744 62.5046 10.7497 62.5548 10.4077C62.5813 10.1521 62.6268 10.099 62.6339 10.095L62.6494 10.0805C62.6942 10.0603 62.901 10.0197 63.2178 10.0237H63.5577H63.9789V8.47962L63.5261 8.51417C62.8256 8.56817 62.1251 8.59424 61.3976 8.59424C60.6692 8.59424 59.8823 8.56817 59.037 8.51417L58.5879 8.48517V10.0237H59.606C59.9936 10.0374 60.0336 10.1086 60.0685 10.1791C60.08 10.1794 60.1389 10.5478 60.1528 11.0829C60.1738 11.629 60.1806 12.3931 60.1806 13.3703V20.1354C60.1806 21.2059 60.1738 22.0389 60.1528 22.6301C60.1389 23.208 60.0792 23.5964 60.0685 23.597L60.0614 23.6128L60.0559 23.631C60.0509 23.637 60.064 23.6438 59.9781 23.6845C59.8949 23.7206 59.7249 23.7541 59.4923 23.7533H59.0092H58.5879V25.2841L59.0297 25.2624C60.1641 25.2086 61.0112 25.182 61.5972 25.182C62.2105 25.182 62.8529 25.2086 63.524 25.2618L63.9789 25.2974V23.7533H63.019C62.7809 23.7501 62.7266 23.7123 62.6925 23.6813C62.6541 23.6458 62.6276 23.6152 62.615 23.598V23.5883L62.604 23.5441C62.5863 23.4506 62.5543 22.868 62.5294 21.9709C62.502 21.2416 62.5013 20.6239 62.5013 20.0806L62.5017 17.3077C63.2911 17.2696 64.3716 17.2494 65.7195 17.2502C66.6564 17.2499 67.4559 17.2687 68.1139 17.3054V19.8632C68.1139 21.3246 68.0843 22.4607 68.0288 23.1742C68.017 23.3274 67.9921 23.4587 67.9644 23.5468C67.9505 23.5918 67.9348 23.6265 67.9256 23.6446C67.9214 23.6527 67.918 23.658 67.9167 23.6608L67.9075 23.6688L67.8923 23.6873L67.8914 23.6853C67.8615 23.7069 67.7078 23.7561 67.4546 23.7533H66.9428H66.5212V25.2949L66.9745 25.2618C67.7011 25.2086 68.5148 25.182 69.3591 25.1828C70.1166 25.182 70.8452 25.2086 71.5437 25.2618L71.9983 25.2966V23.7533H70.9805C70.5487 23.7377 70.5395 23.6612 70.5301 23.631L70.5238 23.614L70.5175 23.5983C70.5162 23.5983 70.5107 23.5798 70.5023 23.5307C70.4311 23.1589 70.4046 21.9291 70.4067 19.9447V13.724C70.4054 11.9368 70.4075 10.8603 70.4324 10.5484C70.4473 10.3164 70.4978 10.1497 70.5254 10.0888C70.5794 10.0655 70.7391 10.0205 70.9805 10.0237H71.9983V8.48517L71.5482 8.51417C70.732 8.56724 69.9467 8.59424 69.1893 8.59424Z" fill="#FFF200"/>
<path d="M73.5088 8.51288L73.043 8.5044L73.0799 8.94792C73.1659 9.94312 73.1936 10.7208 73.1928 11.252L73.1558 12.9861H74.4887L74.6319 11.1179C74.6453 10.8234 74.6736 10.612 74.706 10.4877C74.7115 10.4636 74.7186 10.4422 74.7245 10.4252C74.9441 10.3896 75.6071 10.3468 76.5427 10.3506H76.9285C76.9529 11.3022 76.9752 12.3325 76.9752 13.4247V19.8356C76.9752 21.1893 76.9453 22.3233 76.8892 23.1511C76.8763 23.3272 76.8561 23.4723 76.8329 23.5661C76.8211 23.6127 76.8092 23.6462 76.8004 23.6632C76.7999 23.6638 76.7995 23.6655 76.7995 23.6667L76.7748 23.69L76.763 23.7098C76.7297 23.7238 76.6243 23.756 76.4579 23.754H75.3817V25.2898L75.8299 25.262C76.7048 25.2085 77.4938 25.1823 78.1071 25.1823C78.7482 25.1823 79.5086 25.2085 80.4121 25.2628L80.8595 25.2898V23.754H79.87C79.6531 23.754 79.4997 23.7218 79.4253 23.6885C79.3557 23.6559 79.362 23.6462 79.3594 23.6474C79.3583 23.6491 79.3541 23.6302 79.3473 23.5805C79.2921 23.2031 79.2659 21.9483 79.2682 19.8903L79.2672 13.4802C79.2672 12.402 79.29 11.3461 79.3334 10.3506H79.5293C80.2572 10.3506 80.8381 10.3766 81.3924 10.4294C81.4194 10.4329 81.4454 10.4386 81.4653 10.4439C81.482 10.5488 81.5103 10.8056 81.5252 11.1376L81.6313 12.9861H82.9249L82.935 12.5941C82.9636 11.4294 83.0201 10.2129 83.1056 8.94114L83.1354 8.50409L78.4391 8.59495C77.9466 8.59495 76.3223 8.56734 73.5088 8.51288Z" fill="#FFF200"/>
<path d="M88.0447 15.7273L88.0442 13.5606C88.0442 12.4543 88.045 11.3758 88.0885 10.3942C88.5493 10.191 88.9537 10.1057 89.3289 10.1049C90.1142 10.1125 90.6298 10.3499 91.0074 10.8369C91.3872 11.3323 91.5809 12.0575 91.5809 13.0712C91.5803 14.1136 91.3889 14.8742 91.0195 15.44C90.6471 15.9647 90.2528 16.1636 89.6706 16.1733C89.4352 16.1744 89.11 16.1088 88.6816 15.9544L88.0447 15.7273ZM90.0692 8.43153C89.7837 8.43153 89.414 8.45976 88.9617 8.48784C88.2587 8.51314 87.61 8.5406 87.0256 8.5406C86.0315 8.5406 85.2093 8.5406 84.5997 8.51314L84.1592 8.49308V10.0236H84.949C85.1744 10.0227 85.3462 10.0501 85.4431 10.0832C85.4919 10.0997 85.5219 10.1169 85.5335 10.125L85.5411 10.1282L85.5484 10.1442L85.561 10.1628C85.5981 10.1643 85.7118 10.8014 85.7228 11.7521L85.7514 14.0556V20.0257C85.7228 21.8342 85.6945 22.9036 85.6676 23.2276C85.655 23.3908 85.6343 23.5206 85.6128 23.603C85.601 23.6441 85.59 23.6725 85.5834 23.6847C85.5825 23.6863 85.5821 23.6875 85.5817 23.6884L85.5723 23.698L85.5618 23.7102C85.5379 23.7222 85.4397 23.7544 85.2627 23.7535H84.1592V25.2828L84.6007 25.2623C85.7636 25.2088 86.5854 25.1822 87.0539 25.1822C87.5514 25.1822 88.2851 25.2088 89.1896 25.2623L89.6358 25.2897V23.7535H88.6753C88.4579 23.7535 88.3076 23.721 88.2385 23.6884C88.1673 23.6522 88.179 23.6502 88.1697 23.6329L88.1623 23.6124L88.1566 23.5974C88.1558 23.5974 88.1508 23.5797 88.1411 23.5309C88.0707 23.1596 88.0421 21.9328 88.0455 19.9714L88.0447 15.9599L88.3008 17.488L88.5561 17.5596C89.0527 17.6976 89.4512 17.7917 89.8408 17.7934C90.6332 17.7954 91.3589 17.5012 92.0329 17.0019C92.6943 16.492 93.1961 15.8291 93.531 15.0118C93.8894 14.2154 94.073 13.3702 94.0722 12.5013C94.074 11.3255 93.7685 10.3254 93.1261 9.55987C92.4495 8.78281 91.3889 8.42752 90.0692 8.43153Z" fill="#FFF200"/>
<path d="M97.5318 15.9781C97.531 14.7365 97.6987 13.6367 98.02 12.7401C98.3475 11.8027 98.7694 11.1372 99.2981 10.6804C99.7901 10.2989 100.325 10.075 100.954 10.0317V10.0365L101.265 10.0485L101.795 10.3089V10.094C102.337 10.1826 102.797 10.4035 103.217 10.7825C103.835 11.2989 104.314 12.0667 104.668 13.1626C105.05 14.2263 105.22 15.5439 105.22 17.1193C105.22 18.6116 105.051 19.8499 104.726 20.8584C104.398 21.8778 103.971 22.5926 103.432 23.0349C102.911 23.5024 102.385 23.7241 101.744 23.7504L101.405 23.7274C100.735 23.6771 100.165 23.4313 99.6267 22.9201C99.0071 22.3544 98.4931 21.4955 98.1111 20.2902C97.7285 19.0892 97.531 17.6309 97.5318 15.9781ZM101.795 8.27255V8.25481L101.361 8.269H100.954V8.29307C99.275 8.44966 97.8721 9.28225 96.8241 10.692C95.6787 12.3058 95.1245 14.3764 95.1245 16.9021C95.1245 18.5673 95.3574 20.0519 95.8305 21.3784C96.3333 22.7124 97.0277 23.7021 97.8882 24.4063C98.7518 25.1234 99.7783 25.4908 100.954 25.509V25.5385L101.391 25.5098H101.795V25.4695C103.414 25.2514 104.782 24.3303 105.847 22.8047C107.1 21.0673 107.683 18.8873 107.683 16.3318C107.683 13.9707 107.188 12.0349 106.1 10.5335C105.064 9.11811 103.591 8.33087 101.795 8.27255Z" fill="#FFF200"/>
<path d="M115.33 8.59506C114.285 8.59506 112.152 8.56683 108.827 8.51299L108.398 8.50604V10.0238H109.417C109.808 10.0438 109.843 10.1055 109.898 10.2137C109.952 10.4491 109.995 11.5723 109.989 13.345L109.988 20.1076C109.994 22.1781 109.95 23.3972 109.889 23.5971C109.891 23.6181 109.818 23.7432 109.303 23.7534H108.818H108.398V25.2851L108.841 25.2624C109.917 25.2084 110.763 25.1821 111.405 25.1821C112.078 25.1821 112.719 25.2084 113.33 25.2617L113.789 25.301V23.7534H112.857C112.707 23.7517 112.601 23.7251 112.463 23.6551C112.465 23.6556 112.465 23.6551 112.465 23.6551C112.444 23.6366 112.383 23.4769 112.367 23.1798L112.339 21.9995C112.311 21.2675 112.311 20.6513 112.311 20.1076V13.37C112.311 12.3764 112.311 11.3872 112.351 10.404C112.988 10.3682 114.023 10.35 115.414 10.3508C116.355 10.35 117.057 10.3661 117.534 10.3976C117.586 12.2698 117.611 13.3788 117.611 13.7242V19.8903C117.616 22.0275 117.547 23.3171 117.49 23.5625C117.448 23.6543 117.369 23.7404 116.98 23.7534H116.44H116.019V24.1557V25.2959L116.473 25.2617C117.169 25.2084 117.954 25.1821 118.829 25.1827C119.7 25.1821 120.428 25.2084 121.035 25.2617L121.495 25.301V23.7534H120.476C120.036 23.7251 120.051 23.6792 120.005 23.5698C119.961 23.2941 119.902 22.0272 119.903 19.9441V13.7242C119.902 11.6745 119.936 10.4451 119.982 10.2049L119.986 10.1862L119.987 10.1706C119.997 10.1263 119.985 10.1404 120.037 10.1018C120.092 10.0671 120.24 10.0221 120.476 10.0238H121.495V8.50497L121.065 8.51299C117.884 8.56683 115.974 8.59506 115.33 8.59506Z" fill="#FFF200"/>
<path d="M149.593 10.5486L149.594 10.5338V10.5185C149.591 10.3056 149.645 10.1546 149.68 10.092C149.728 10.0665 149.889 10.0218 150.139 10.0235H151.129V8.48415L150.679 8.51316C149.862 8.567 149.075 8.59523 148.319 8.59523C147.62 8.59523 146.89 8.567 146.103 8.51316L145.652 8.48338V10.0235H146.641C146.793 10.0235 146.899 10.0415 146.959 10.0608C147.019 10.0805 147.02 10.0915 147.021 10.0895L147.037 10.1075L147.055 10.1253C147.074 10.1341 147.138 10.2509 147.159 10.5241C147.214 11.3729 147.244 12.4517 147.243 13.725V15.5204C146.569 15.557 145.722 15.5755 144.736 15.5755C143.519 15.5755 142.472 15.555 141.633 15.5164V13.3452C141.632 11.7732 141.661 10.7692 141.687 10.382C141.712 10.1501 141.757 10.0991 141.763 10.0975L141.775 10.0858C141.823 10.0613 142.053 10.0202 142.375 10.0235H142.688H143.11V8.47922L142.656 8.51316C141.955 8.567 141.257 8.59446 140.528 8.59523C139.8 8.59446 139.041 8.567 138.195 8.51316L137.747 8.4857V10.0235H138.737C139.167 10.0383 139.177 10.116 139.186 10.145L139.191 10.1611L139.197 10.1768C139.211 10.1873 139.275 10.5531 139.297 11.0875C139.325 11.6336 139.34 12.3958 139.339 13.3708V20.1351C139.34 21.2039 139.325 22.0354 139.3 22.6274C139.281 23.1587 139.239 23.5269 139.219 23.6158C139.19 23.6648 139.084 23.7454 138.651 23.7538H138.168H137.747V25.2841L138.189 25.2631C139.293 25.2086 140.171 25.1821 140.755 25.1821C141.369 25.1821 142.011 25.2086 142.652 25.2621L143.11 25.2996V23.7538H142.177C142.063 23.7538 141.972 23.741 141.923 23.7256C141.898 23.7196 141.883 23.7123 141.878 23.7093L141.877 23.7088L141.852 23.6793L141.814 23.6505C141.74 23.5869 141.749 23.5848 141.732 23.5414C141.716 23.4286 141.684 22.8512 141.66 21.9711C141.633 21.2417 141.632 20.6237 141.632 20.0813L141.633 17.308C142.422 17.2694 143.507 17.2493 144.878 17.2493C145.814 17.2493 146.593 17.2686 147.244 17.3052V19.8635C147.244 21.3239 147.214 22.4612 147.159 23.1744C147.146 23.3381 147.127 23.4769 147.104 23.5676C147.092 23.6122 147.079 23.6452 147.072 23.6605C147.071 23.6625 147.07 23.6642 147.069 23.6653L147.062 23.6713L147.051 23.6866L147.05 23.6858C147.021 23.7059 146.865 23.7549 146.613 23.7538H146.074H145.652V25.2952L146.106 25.2621C146.83 25.2086 147.644 25.1821 148.518 25.1821C149.246 25.1821 149.974 25.2086 150.674 25.2621L151.129 25.2964V23.7538H150.11C149.68 23.7369 149.671 23.6613 149.66 23.6312C149.644 23.6017 149.595 23.1972 149.575 22.5836C149.55 21.9606 149.536 21.082 149.536 19.9448V13.725C149.536 11.9383 149.566 10.8738 149.593 10.5486Z" fill="#FFF200"/>
<path d="M157.569 2.77655C159.46 2.77655 160.999 4.24659 160.999 6.05325C160.999 7.85976 159.46 9.3298 157.569 9.3298C155.68 9.3298 154.14 7.85976 154.14 6.05325C154.14 4.24659 155.68 2.77655 157.569 2.77655ZM153.497 6.05325C153.497 8.199 155.325 9.94318 157.569 9.94318C159.815 9.94318 161.642 8.199 161.642 6.05325C161.642 3.90781 159.815 2.16317 157.569 2.16317C155.325 2.16317 153.497 3.90781 153.497 6.05325Z" fill="#FFF200"/>
<path d="M157.001 5.82234H157.824C158.33 5.82234 158.403 5.54018 158.403 5.36354C158.403 5.00455 158.179 4.89641 157.791 4.89641H157.001V5.82234ZM156.1 4.18723H158.054C158.442 4.18723 159.351 4.28102 159.351 5.2247C159.351 5.83962 158.937 6.05174 158.686 6.13582V6.14801C159.216 6.2924 159.225 6.76571 159.232 7.03213C159.244 7.49494 159.244 7.64582 159.378 7.83418H158.463C158.298 7.60633 158.358 7.46347 158.31 6.90655C158.272 6.46904 157.798 6.48925 157.693 6.48925H157.001V7.83418H156.1V4.18723Z" fill="#FFF200"/>
</g>
</g>
<defs>
<clipPath id="clip0_388_5">
<rect width="168" height="33" fill="white"/>
</clipPath>
</defs>
</svg>
