<svg width="254" height="51" viewBox="0 0 254 51" fill="none" xmlns="http://www.w3.org/2000/svg">
<g clip-path="url(#clip0_240_3)">
<mask id="mask0_240_3" style="mask-type:luminance" maskUnits="userSpaceOnUse" x="0" y="0" width="255" height="51">
<path d="M0 -1.19095e-06H254.001V51H0V-1.19095e-06Z" fill="white"/>
</mask>
<g mask="url(#mask0_240_3)">
<path d="M24.2547 29.607C24.5979 26.976 24.7666 22.4633 24.7776 16.0429C25.2928 16.0136 25.8406 15.985 26.3889 15.9533H28.0096C29.1394 15.9533 30.0477 15.9788 30.6985 16.0248C30.7732 18.5723 30.8126 20.2801 30.8126 21.1677V31.0754C30.8126 31.9628 30.7732 33.6682 30.6985 36.1089C30.0076 36.1773 29.1414 36.2028 28.139 36.2028C27.8372 36.2028 27.4583 36.2028 27.0122 36.189V36.1623H26.3889L25.7386 36.1251V36.1592C24.8037 36.1504 23.6565 36.1232 22.3262 36.0746C23.272 34.1527 23.9126 31.9859 24.2547 29.607ZM34.4822 36.5903C34.4014 36.5292 34.4212 36.5504 34.4039 36.4801L34.4014 36.4546L34.4002 36.4372C34.327 36.0068 34.2752 34.162 34.2779 31.0337V21.2106C34.274 18.0425 34.3282 16.143 34.3987 15.7692L34.4027 15.7387L34.4039 15.7194C34.4224 15.6498 34.3975 15.6777 34.481 15.6142C34.5677 15.5601 34.8065 15.4886 35.1885 15.4917L36.6859 15.49V13.1564H35.1453L27.9937 13.3218H27.0122H26.376C24.1126 13.3218 22.2344 13.2415 20.6939 13.1583L20.022 13.1204V15.49H21.5186C21.8772 15.49 22.0911 15.557 22.1758 15.6142C22.2566 15.6746 22.2747 15.6872 22.3059 15.8383C22.3833 16.3519 22.4299 17.5306 22.428 19.2775C22.4299 24.9628 22.1243 28.9726 21.625 31.2831C21.0855 33.5514 20.1729 35.6163 18.8462 37.4791L18.7463 37.6188L18.6043 39.4672C18.4768 41.082 18.2654 42.6983 17.9668 44.3603L17.835 45.091H20.0237L20.1226 44.5835C20.4085 43.1046 20.7346 41.5577 21.169 39.9779C21.8179 39.5469 22.4058 39.2951 23.0674 39.1583C23.5764 39.0476 24.7342 38.9556 26.3909 38.9177H27.8811C30.7259 38.9084 32.5418 39.0245 32.9651 39.1811C33.4556 39.3392 33.9124 39.5793 34.3155 39.9002C34.4319 41.5148 34.5111 43.0199 34.5511 44.4845L34.5677 45.091H36.6859V44.4685C36.6859 42.1461 36.856 39.7827 37.1947 37.4188L37.2972 36.7097H35.1453C34.7891 36.7128 34.5645 36.6425 34.4822 36.5903Z" fill="#FFF200"/>
<path d="M64.0765 36.5984C63.9664 36.4935 63.6256 36.0877 63.2179 35.4466L56.409 24.8015L59.7088 19.0366C60.505 17.721 61.1864 16.7384 61.7113 16.232C62.232 15.7276 62.7577 15.4908 63.2791 15.4908H63.9249H64.5619V13.0752L63.8465 13.161C63.1766 13.2418 62.6034 13.2823 62.0333 13.2833C61.4615 13.2833 60.8416 13.2418 60.0826 13.1591L59.3758 13.0833V14.8316L56.7925 19.3076C55.7296 21.2307 54.8602 22.7204 54.2017 23.7684V20.916C54.2017 19.3444 54.212 18.121 54.2386 17.2453C54.2584 16.3851 54.3221 15.8055 54.3462 15.7595L54.3514 15.7426L54.3582 15.719C54.3582 15.719 54.3328 15.601 54.8978 15.5766H54.9232L56.4371 15.4341V13.1267L55.7708 13.1586C53.8858 13.2387 52.7942 13.2833 52.5323 13.2833C52.2305 13.2833 51.3599 13.2387 50.0403 13.2001C49.5989 13.1586 49.3201 13.1572 49.2659 13.1572H48.6289V15.4703L49.2449 15.4908C49.8855 15.5106 50.3567 15.5673 50.6077 15.6401C50.6792 15.6598 50.73 15.6818 50.7613 15.6973C50.8223 16.1257 50.9122 17.9599 50.9058 20.916L50.9065 23.8025C50.2976 22.8205 49.4136 21.3134 48.2735 19.3107L45.7317 14.834V13.0833L45.0254 13.1591C44.2683 13.2418 43.6033 13.2833 43.032 13.2833C42.5059 13.2833 41.8838 13.2418 41.2183 13.161L40.5029 13.074V15.4908H41.7844C42.2817 15.4913 42.802 15.6973 43.3115 16.1903C43.8408 16.6674 44.5601 17.6385 45.356 19.0366L48.6958 24.8025L41.8455 35.4466C41.4685 36.0672 41.1704 36.4673 41.0322 36.5984C40.9744 36.663 40.8386 36.7153 40.7959 36.7098H40.4954H39.8584V39.1378L40.5852 39.0367C41.166 38.9564 41.6506 38.9178 42.0857 38.9178C42.5208 38.9178 43.053 38.9564 43.5798 39.0367L43.9976 39.0992L50.907 28.0984L50.9058 32.5029C50.907 33.7586 50.8951 34.7414 50.8689 35.44C50.8555 35.7883 50.8396 36.0672 50.8186 36.2663C50.8091 36.3664 50.7969 36.4466 50.7879 36.5016C50.7784 36.5548 50.772 36.5641 50.7747 36.5655L50.7574 36.6096L50.753 36.6328C50.7007 36.6595 50.4988 36.7141 50.1683 36.7098H48.6289V39.088L49.3111 39.0422C50.5013 38.9588 51.5611 38.9178 52.5323 38.9182C53.5037 38.9178 54.606 38.9588 55.7537 39.0422L56.4371 39.0899V36.7098H54.9405C54.6246 36.7117 54.4041 36.6661 54.3182 36.6297C54.3106 36.6263 54.3043 36.6232 54.2991 36.6216C54.2527 36.3049 54.1939 34.7972 54.2017 32.5029V28.1611L61.1551 39.098L61.5716 39.0367C62.1034 38.9564 62.5863 38.9178 63.0218 38.9178C63.4569 38.9178 63.9427 38.9564 64.5223 39.0367L65.2491 39.1378V36.7098H64.2689C64.2357 36.7098 64.1798 36.6962 64.0765 36.5984Z" fill="#FFF200"/>
<path d="M83.6238 13.2826L81.3909 13.1259L77.3843 22.0509L73.7776 29.7251L72.4981 32.413V20.6239C72.4981 19.0954 72.521 17.9062 72.5581 17.0577C72.5855 16.2785 72.656 15.7338 72.6778 15.6615L72.679 15.6622C72.6948 15.6267 73.0198 15.4813 73.6248 15.4918L74.1414 15.4906H74.7784V14.8697V13.0997L74.0867 13.1584C73.1209 13.2397 71.9785 13.2826 70.5728 13.2826C69.6016 13.2826 68.4993 13.2411 67.3064 13.1584L66.626 13.1102V15.4906H68.1228C68.4265 15.4894 68.636 15.5397 68.7305 15.5888C68.8247 15.6436 68.8164 15.6436 68.8406 15.7044C68.9253 15.9159 69.043 17.7272 69.0342 20.6239V31.3272C69.0342 33.5016 68.9915 35.9208 68.8189 38.7645L68.7686 39.598L69.6004 39.4077C70.2588 39.257 70.7798 39.1154 71.1824 38.9778C71.5894 38.8217 71.8587 38.7447 72.146 38.4316C72.3364 38.1806 72.544 37.7681 72.989 36.8895C73.4165 36.0317 74.0095 34.8003 74.7635 33.1781L81.0355 19.573C81.0272 20.2496 81.0272 20.7978 81.0272 21.21V30.6971C81.0272 32.455 81.0062 33.8137 80.9637 34.7791C80.9293 35.7287 80.8375 36.3595 80.8089 36.4036C80.7222 36.5734 80.6917 36.6773 80.0293 36.7098H79.2134H78.5765V39.0949L79.2645 39.0405C80.3196 38.9585 81.5049 38.9175 82.8692 38.9175C84.1441 38.9175 85.244 38.9585 86.2088 39.0405L86.9012 39.1004V36.7098H85.3612C85.0433 36.711 84.837 36.6514 84.753 36.602C84.6722 36.546 84.6805 36.5541 84.6563 36.4709L84.6512 36.4373L84.6434 36.4118C84.557 36.1779 84.4854 34.1844 84.4945 30.8228V21.21C84.4945 19.5332 84.5052 18.2233 84.5313 17.2906C84.5518 16.3756 84.6155 15.7566 84.639 15.7183L84.6485 15.6846L84.6549 15.6534C84.6734 15.6119 84.6353 15.6436 84.722 15.5888C84.8089 15.5433 85.0333 15.4894 85.3612 15.4906H86.9012V13.1202L86.2301 13.1569C84.7427 13.2385 83.8729 13.2807 83.6238 13.2826Z" fill="#FFF200"/>
<path d="M202.822 13.2833L200.59 13.1271L196.584 22.0509L192.978 29.7251L191.698 32.4132V20.6234C191.698 19.0959 191.72 17.905 191.758 17.0574C191.786 16.2785 191.855 15.7337 191.877 15.6622H191.877C191.895 15.6267 192.22 15.482 192.826 15.4913H193.34H193.977V14.8692V13.0992L193.285 13.1583C192.323 13.2404 191.178 13.2833 189.774 13.2821C188.803 13.2833 187.698 13.2404 186.508 13.1583L185.826 13.1104V15.4913H187.323C187.627 15.4898 187.836 15.5409 187.929 15.5888C188.024 15.6436 188.016 15.6436 188.04 15.7039C188.125 15.9147 188.242 17.7279 188.234 20.6234V31.3272C188.234 33.5023 188.191 35.9223 188.021 38.7652L187.968 39.5968L188.8 39.4077C189.459 39.2565 189.981 39.1166 190.383 38.9778C190.79 38.8212 191.058 38.7446 191.345 38.4316C191.536 38.1806 191.743 37.7674 192.189 36.8895C192.617 36.0317 193.209 34.801 193.963 33.1788L200.235 19.5756C200.228 20.2503 200.228 20.7984 200.228 21.2102V30.6978C200.228 32.4549 200.206 33.8137 200.162 34.7798C200.129 35.7294 200.038 36.36 200.009 36.4036C199.92 36.5729 199.891 36.6759 199.23 36.7097H198.412H197.775V39.0949L198.462 39.0412C199.519 38.9585 200.705 38.9177 202.068 38.9177C203.344 38.9177 204.443 38.9585 205.409 39.0412L206.101 39.0997V36.7097H204.561C204.244 36.7109 204.035 36.6513 203.953 36.6027C203.871 36.5448 203.88 36.5548 203.856 36.4709L203.85 36.4396L203.843 36.4124C203.757 36.1764 203.684 34.1844 203.695 30.8227V21.2102C203.695 19.5339 203.705 18.2254 203.731 17.2906C203.751 16.3751 203.816 15.758 203.839 15.7175L203.85 15.6803L203.855 15.6534C203.872 15.6126 203.836 15.6436 203.923 15.5888C204.007 15.5435 204.232 15.4886 204.561 15.4913H206.101V13.1202L205.43 13.1571C203.94 13.2384 203.069 13.2802 202.822 13.2833Z" fill="#FFF200"/>
<path d="M104.607 13.282C103.55 13.282 102.403 13.2417 101.257 13.1583L100.574 13.1092V15.4912H102.028C102.258 15.4912 102.434 15.5186 102.539 15.5503C102.592 15.5677 102.627 15.5844 102.643 15.5951L102.645 15.5925C102.71 15.669 102.81 15.8631 102.81 16.2131V16.2455L102.812 16.2718C102.937 17.5797 102.981 19.2446 102.98 21.2099V23.9853C101.943 24.043 100.681 24.0723 99.1482 24.0709C97.3081 24.0723 95.7561 24.0406 94.4968 23.9789V20.6234C94.4939 18.1968 94.5008 16.6132 94.5767 16.0846C94.6167 15.6895 94.6856 15.6075 94.6963 15.6013L94.7197 15.5789C94.7874 15.5477 95.1001 15.485 95.5791 15.4912H96.093H96.7298V13.1049L96.0452 13.1583C94.9861 13.2417 93.927 13.282 92.8272 13.282C91.7258 13.282 90.5361 13.2417 89.2581 13.1583L88.5791 13.1134V15.4912H90.1184C90.7044 15.5124 90.7649 15.6223 90.8176 15.7313C90.835 15.7317 90.9241 16.3011 90.9451 17.1282C90.9768 17.9722 90.9871 19.153 90.9871 20.6632V31.1183C90.9871 32.7727 90.9768 34.0601 90.9451 34.9738C90.9241 35.8669 90.8337 36.4672 90.8176 36.4682L90.8069 36.4925L90.7986 36.5206C90.791 36.5299 90.8108 36.5404 90.6809 36.6033C90.5552 36.6591 90.2981 36.7109 89.9465 36.7097H89.2161H88.5791V39.0755L89.2471 39.0419C90.9622 38.9587 92.2429 38.9177 93.1289 38.9177C94.0562 38.9177 95.0274 38.9587 96.042 39.0409L96.7298 39.096V36.7097H95.2786C94.9185 36.7047 94.8364 36.6463 94.7849 36.5983C94.7268 36.5435 94.6868 36.4963 94.6677 36.4696V36.4546L94.6511 36.3864C94.6243 36.2419 94.576 35.3414 94.5384 33.955C94.4968 32.828 94.4959 31.8734 94.4959 31.0337L94.4964 26.7483C95.69 26.6894 97.3235 26.6582 99.3614 26.6594C100.778 26.6589 101.987 26.688 102.981 26.7448V30.6977C102.981 32.9563 102.937 34.712 102.853 35.8147C102.835 36.0514 102.797 36.2543 102.755 36.3904C102.734 36.4601 102.711 36.5137 102.697 36.5416C102.69 36.5542 102.685 36.5623 102.683 36.5666L102.669 36.579L102.647 36.6076L102.645 36.6045C102.6 36.6379 102.367 36.714 101.985 36.7097H101.211H100.574V39.0922L101.259 39.0409C102.357 38.9587 103.588 38.9177 104.864 38.9189C106.009 38.9177 107.111 38.9587 108.167 39.0409L108.854 39.0948V36.7097H107.316C106.663 36.6856 106.649 36.5673 106.635 36.5206L106.625 36.4944L106.616 36.4701C106.614 36.4701 106.605 36.4415 106.593 36.3656C106.485 35.7911 106.445 33.8904 106.448 30.8236V21.2099C106.446 18.4478 106.449 16.7841 106.487 16.302C106.509 15.9435 106.586 15.686 106.628 15.5918C106.709 15.5558 106.951 15.4862 107.316 15.4912H108.854V13.1134L108.174 13.1583C106.94 13.2403 105.753 13.282 104.607 13.282Z" fill="#FFF200"/>
<path d="M111.139 13.1563L110.435 13.1432L110.49 13.8286C110.62 15.3666 110.662 16.5685 110.661 17.3894L110.605 20.0694H112.62L112.837 17.1822C112.857 16.7271 112.9 16.4004 112.949 16.2083C112.957 16.1711 112.968 16.1379 112.977 16.1117C113.309 16.0566 114.311 15.9906 115.726 15.9963H116.309C116.346 17.4671 116.38 19.0593 116.38 20.7473V30.655C116.38 32.7471 116.334 34.4997 116.25 35.779C116.23 36.0511 116.2 36.2754 116.165 36.4204C116.147 36.4924 116.129 36.5441 116.115 36.5703C116.115 36.5713 116.114 36.5739 116.114 36.5758L116.077 36.6118L116.059 36.6424C116.009 36.664 115.849 36.7139 115.598 36.7108H113.97V39.0842L114.648 39.0413C115.971 38.9586 117.164 38.9181 118.091 38.9181C119.06 38.9181 120.21 38.9586 121.576 39.0425L122.252 39.0842V36.7108H120.756C120.429 36.7108 120.197 36.6609 120.084 36.6095C119.979 36.5591 119.988 36.5441 119.984 36.546C119.983 36.5487 119.976 36.5193 119.966 36.4426C119.883 35.8594 119.843 33.9201 119.846 30.7396L119.845 20.8331C119.845 19.1668 119.879 17.5348 119.945 15.9963H120.241C121.342 15.9963 122.22 16.0366 123.058 16.1181C123.099 16.1236 123.138 16.1324 123.168 16.1405C123.194 16.3027 123.236 16.6996 123.259 17.2127L123.419 20.0694H125.375L125.39 19.4636C125.434 17.6636 125.519 15.7836 125.648 13.8181L125.693 13.1427L118.593 13.2831C117.848 13.2831 115.393 13.2404 111.139 13.1563Z" fill="#FFF200"/>
<path d="M133.115 24.3058L133.114 20.9572C133.114 19.2475 133.115 17.5808 133.181 16.0637C133.878 15.7497 134.489 15.6179 135.056 15.6167C136.244 15.6284 137.023 15.9953 137.594 16.748C138.168 17.5135 138.461 18.6343 138.461 20.201C138.46 21.812 138.171 22.9874 137.612 23.8619C137.049 24.6727 136.453 24.9801 135.573 24.9951C135.217 24.9967 134.725 24.8954 134.078 24.6568L133.115 24.3058ZM136.176 13.0305C135.744 13.0305 135.185 13.0742 134.501 13.1176C133.438 13.1567 132.458 13.1991 131.574 13.1991C130.071 13.1991 128.828 13.1991 127.906 13.1567L127.24 13.1257V15.491H128.434C128.775 15.4896 129.035 15.532 129.181 15.5831C129.255 15.6086 129.301 15.6353 129.318 15.6477L129.33 15.6527L129.341 15.6775L129.36 15.7061C129.416 15.7085 129.588 16.6931 129.604 18.1623L129.647 21.7223V30.9489C129.604 33.7438 129.562 35.3965 129.521 35.8972C129.502 36.1495 129.47 36.35 129.438 36.4773C129.42 36.541 129.404 36.5848 129.394 36.6037C129.392 36.606 129.392 36.6079 129.391 36.6094L129.377 36.6242L129.361 36.643C129.325 36.6616 129.176 36.7114 128.909 36.71H127.24V39.0734L127.908 39.0417C129.666 38.959 130.908 38.918 131.617 38.918C132.369 38.918 133.478 38.959 134.846 39.0417L135.52 39.0842V36.71H134.068C133.74 36.71 133.512 36.6597 133.408 36.6094C133.3 36.5533 133.318 36.5502 133.304 36.5235L133.293 36.4918L133.284 36.4687C133.283 36.4687 133.275 36.4413 133.261 36.366C133.154 35.7921 133.111 33.8962 133.116 30.8649L133.115 24.6653L133.502 27.0269L133.888 27.1375C134.639 27.3509 135.241 27.4963 135.83 27.4989C137.028 27.502 138.126 27.0474 139.145 26.2756C140.145 25.4877 140.903 24.4632 141.409 23.2C141.951 21.9693 142.229 20.663 142.228 19.3203C142.231 17.503 141.769 15.9574 140.797 14.7743C139.774 13.5734 138.171 13.0243 136.176 13.0305Z" fill="#FFF200"/>
<path d="M147.459 24.6934C147.458 22.7746 147.711 21.0749 148.197 19.6892C148.692 18.2406 149.33 17.212 150.129 16.5061C150.873 15.9165 151.682 15.5705 152.632 15.5035V15.5109L153.103 15.5295L153.905 15.932V15.5999C154.723 15.7367 155.42 16.0781 156.054 16.6639C156.989 17.4619 157.713 18.6485 158.248 20.3422C158.826 21.9861 159.083 24.0225 159.082 26.4572C159.082 28.7634 158.827 30.6772 158.336 32.2357C157.84 33.8112 157.194 34.9158 156.379 35.5993C155.592 36.322 154.797 36.6646 153.828 36.7051L153.315 36.6696C152.302 36.5919 151.439 36.2121 150.626 35.4219C149.689 34.5477 148.912 33.2204 148.335 31.3576C147.756 29.5015 147.458 27.2478 147.459 24.6934ZM153.905 12.7849V12.7574L153.248 12.7794H152.632V12.8166C150.095 13.0586 147.973 14.3453 146.389 16.524C144.657 19.0181 143.819 22.2181 143.819 26.1215C143.819 28.695 144.171 30.9893 144.887 33.0394C145.647 35.101 146.697 36.6305 147.998 37.7189C149.303 38.827 150.855 39.3949 152.632 39.4231V39.4686L153.294 39.4243H153.905V39.362C156.353 39.0249 158.421 37.6013 160.031 35.2436C161.926 32.5585 162.806 29.1895 162.806 25.2401C162.806 21.5911 162.058 18.5994 160.413 16.2791C158.847 14.0916 156.619 12.875 153.905 12.7849Z" fill="#FFF200"/>
<path d="M174.368 13.2833C172.788 13.2833 169.563 13.2396 164.535 13.1564L163.887 13.1457V15.4913H165.427C166.018 15.5223 166.071 15.6176 166.155 15.7848C166.237 16.1486 166.302 17.8845 166.293 20.6242L166.292 31.0755C166.3 34.2753 166.234 36.1592 166.141 36.4682C166.145 36.5007 166.033 36.694 165.255 36.7098H164.523H163.887V39.077L164.557 39.042C166.184 38.9585 167.463 38.9177 168.434 38.9177C169.45 38.9177 170.42 38.9585 171.344 39.0408L172.037 39.1016V36.7098H170.629C170.403 36.7071 170.241 36.6661 170.033 36.5579C170.036 36.5586 170.036 36.5579 170.036 36.5579C170.004 36.5293 169.912 36.2825 169.888 35.8233L169.845 33.9992C169.803 32.8679 169.803 31.9156 169.803 31.0755V20.6628C169.803 19.1271 169.803 17.5984 169.864 16.079C170.827 16.0237 172.392 15.9955 174.495 15.9967C175.917 15.9955 176.979 16.0203 177.7 16.0689C177.778 18.9624 177.816 20.6764 177.816 21.2102V30.7395C177.824 34.0426 177.719 36.0355 177.634 36.4148C177.571 36.5567 177.451 36.6897 176.862 36.7098H176.046H175.409V37.3315V39.0937L176.096 39.0408C177.148 38.9585 178.336 38.9177 179.658 38.9187C180.975 38.9177 182.075 38.9585 182.994 39.0408L183.689 39.1016V36.7098H182.149C181.482 36.6661 181.506 36.5951 181.436 36.426C181.37 36 181.281 34.0421 181.282 30.8227V21.2102C181.281 18.0423 181.332 16.1424 181.402 15.7712L181.407 15.7423L181.408 15.7182C181.424 15.6498 181.405 15.6715 181.485 15.6119C181.568 15.5583 181.791 15.4886 182.149 15.4913H183.689V13.144L183.039 13.1564C178.229 13.2396 175.342 13.2833 174.368 13.2833Z" fill="#FFF200"/>
<path d="M226.17 16.3024L226.172 16.2795V16.2559C226.169 15.9269 226.249 15.6935 226.302 15.5967C226.374 15.5573 226.619 15.4882 226.996 15.4908H228.493V13.1119L227.813 13.1567C226.578 13.2399 225.388 13.2835 224.245 13.2835C223.188 13.2835 222.085 13.2399 220.895 13.1567L220.213 13.1107V15.4908H221.707C221.938 15.4908 222.098 15.5187 222.189 15.5485C222.279 15.579 222.28 15.596 222.283 15.5929L222.306 15.6208L222.334 15.6482C222.363 15.6618 222.46 15.8422 222.491 16.2645C222.575 17.5763 222.619 19.2435 222.618 21.2114V23.9861C221.6 24.0426 220.319 24.0712 218.828 24.0712C216.987 24.0712 215.404 24.0395 214.136 23.9799V20.6244C214.135 18.1949 214.179 16.6433 214.218 16.0449C214.255 15.6866 214.324 15.6076 214.332 15.6053L214.351 15.5871C214.424 15.5492 214.771 15.4858 215.258 15.4908H215.732H216.369V13.1042L215.682 13.1567C214.623 13.2399 213.567 13.2823 212.465 13.2835C211.364 13.2823 210.217 13.2399 208.938 13.1567L208.26 13.1143V15.4908H209.757C210.407 15.5137 210.422 15.6339 210.437 15.6787L210.444 15.7035L210.454 15.7278C210.475 15.744 210.571 16.3093 210.605 17.1352C210.647 17.9792 210.669 19.1572 210.668 20.664V31.1179C210.669 32.7697 210.647 34.0548 210.609 34.9696C210.581 35.7907 210.517 36.3598 210.486 36.4971C210.443 36.5729 210.282 36.6974 209.627 36.7105H208.897H208.26V39.0754L208.93 39.0429C210.599 38.9588 211.926 38.9178 212.809 38.9178C213.737 38.9178 214.708 38.9588 215.678 39.0415L216.369 39.0994V36.7105H214.959C214.786 36.7105 214.648 36.6907 214.574 36.6669C214.537 36.6576 214.514 36.6464 214.506 36.6416L214.505 36.6409L214.467 36.5953L214.41 36.5508C214.298 36.4525 214.311 36.4492 214.286 36.3822C214.261 36.2079 214.214 35.3155 214.178 33.9553C214.136 32.8281 214.135 31.873 214.135 31.0347L214.136 26.7487C215.329 26.6891 216.969 26.6581 219.043 26.6581C220.458 26.6581 221.635 26.6879 222.619 26.7444V30.6981C222.619 32.9552 222.575 34.7128 222.491 35.815C222.471 36.068 222.442 36.2825 222.407 36.4227C222.389 36.4916 222.37 36.5426 222.36 36.5662C222.358 36.5693 222.357 36.572 222.356 36.5736L222.345 36.5829L222.328 36.6065L222.326 36.6054C222.282 36.6363 222.047 36.7122 221.665 36.7105H220.85H220.213V39.0925L220.898 39.0415C221.994 38.9588 223.224 38.9178 224.545 38.9178C225.647 38.9178 226.747 38.9588 227.805 39.0415L228.493 39.0944V36.7105H226.953C226.302 36.6843 226.289 36.5674 226.273 36.521C226.248 36.4754 226.174 35.8503 226.144 34.9019C226.106 33.9391 226.084 32.5813 226.084 30.8237V21.2114C226.084 18.4501 226.13 16.805 226.17 16.3024Z" fill="#FFF200"/>
<path d="M238.23 4.29103C241.088 4.29103 243.415 6.56291 243.415 9.35503C243.415 12.1469 241.088 14.4188 238.23 14.4188C235.373 14.4188 233.046 12.1469 233.046 9.35503C233.046 6.56291 235.373 4.29103 238.23 4.29103ZM232.072 9.35503C232.072 12.6712 234.836 15.3667 238.23 15.3667C241.625 15.3667 244.387 12.6712 244.387 9.35503C244.387 6.03935 241.625 3.34308 238.23 3.34308C234.836 3.34308 232.072 6.03935 232.072 9.35503Z" fill="#FFF200"/>
<path d="M237.37 8.99817H238.615C239.38 8.99817 239.489 8.5621 239.489 8.28911C239.489 7.73431 239.152 7.56718 238.565 7.56718H237.37V8.99817ZM236.007 6.47117H238.962C239.549 6.47117 240.924 6.61613 240.924 8.07453C240.924 9.02487 240.297 9.35269 239.918 9.48263V9.50147C240.719 9.72463 240.733 10.4561 240.743 10.8678C240.761 11.5831 240.761 11.8163 240.964 12.1074H239.58C239.331 11.7552 239.422 11.5345 239.349 10.6738C239.291 9.99761 238.575 10.0288 238.417 10.0288H237.37V12.1074H236.007V6.47117Z" fill="#FFF200"/>
<path fill-rule="evenodd" clip-rule="evenodd" d="M254.001 43.714C254.001 47.7373 251.15 51 247.638 51H6.36257C2.84864 51 -0.000488281 47.7373 -0.000488281 43.714V7.28679C-0.000488281 3.26277 2.84864 1.40678e-05 6.36257 1.40678e-05H247.638C251.15 1.40678e-05 254.001 3.26277 254.001 7.28679V43.714Z" fill="#182F67"/>
<path d="M24.2547 29.607C24.5979 26.976 24.7666 22.4633 24.7776 16.0429C25.2928 16.0136 25.8406 15.985 26.3889 15.9533H28.0096C29.1394 15.9533 30.0477 15.9788 30.6985 16.0248C30.7732 18.5723 30.8126 20.2801 30.8126 21.1677V31.0754C30.8126 31.9628 30.7732 33.6682 30.6985 36.1089C30.0076 36.1773 29.1414 36.2028 28.139 36.2028C27.8372 36.2028 27.4583 36.2028 27.0122 36.189V36.1623H26.3889L25.7386 36.1251V36.1592C24.8037 36.1504 23.6565 36.1232 22.3262 36.0746C23.272 34.1527 23.9126 31.9859 24.2547 29.607ZM34.4822 36.5903C34.4014 36.5292 34.4212 36.5504 34.4039 36.4801L34.4014 36.4546L34.4002 36.4372C34.327 36.0068 34.2752 34.162 34.2779 31.0337V21.2106C34.274 18.0425 34.3282 16.143 34.3987 15.7692L34.4027 15.7387L34.4039 15.7194C34.4224 15.6498 34.3975 15.6777 34.481 15.6142C34.5677 15.5601 34.8065 15.4886 35.1885 15.4917L36.6859 15.49V13.1564H35.1453L27.9937 13.3218H27.0122H26.376C24.1126 13.3218 22.2344 13.2415 20.6939 13.1583L20.022 13.1204V15.49H21.5186C21.8772 15.49 22.0911 15.557 22.1758 15.6142C22.2566 15.6746 22.2747 15.6872 22.3059 15.8383C22.3833 16.3519 22.4299 17.5306 22.428 19.2775C22.4299 24.9628 22.1243 28.9726 21.625 31.2831C21.0855 33.5514 20.1729 35.6163 18.8462 37.4791L18.7463 37.6188L18.6043 39.4672C18.4768 41.082 18.2654 42.6983 17.9668 44.3603L17.835 45.091H20.0237L20.1226 44.5835C20.4085 43.1046 20.7346 41.5577 21.169 39.9779C21.8179 39.5469 22.4058 39.2951 23.0674 39.1583C23.5764 39.0476 24.7342 38.9556 26.3909 38.9177H27.8811C30.7259 38.9084 32.5418 39.0245 32.9651 39.1811C33.4556 39.3392 33.9124 39.5793 34.3155 39.9002C34.4319 41.5148 34.5111 43.0199 34.5511 44.4845L34.5677 45.091H36.6859V44.4685C36.6859 42.1461 36.856 39.7827 37.1947 37.4188L37.2972 36.7097H35.1453C34.7891 36.7128 34.5645 36.6425 34.4822 36.5903Z" fill="#FFF200"/>
<path d="M64.0765 36.5984C63.9664 36.4935 63.6256 36.0877 63.2179 35.4466L56.409 24.8015L59.7088 19.0366C60.505 17.721 61.1864 16.7384 61.7113 16.232C62.232 15.7276 62.7577 15.4908 63.2791 15.4908H63.9249H64.5619V13.0752L63.8465 13.161C63.1766 13.2418 62.6034 13.2823 62.0333 13.2833C61.4615 13.2833 60.8416 13.2418 60.0826 13.1591L59.3758 13.0833V14.8316L56.7925 19.3076C55.7296 21.2307 54.8602 22.7204 54.2017 23.7684V20.916C54.2017 19.3444 54.212 18.121 54.2386 17.2453C54.2584 16.3851 54.3221 15.8055 54.3462 15.7595L54.3514 15.7426L54.3582 15.719C54.3582 15.719 54.3328 15.601 54.8978 15.5766H54.9232L56.4371 15.4341V13.1267L55.7708 13.1586C53.8858 13.2387 52.7942 13.2833 52.5323 13.2833C52.2305 13.2833 51.3599 13.2387 50.0403 13.2001C49.5989 13.1586 49.3201 13.1572 49.2659 13.1572H48.6289V15.4703L49.2449 15.4908C49.8855 15.5106 50.3567 15.5673 50.6077 15.6401C50.6792 15.6598 50.73 15.6818 50.7613 15.6973C50.8223 16.1257 50.9122 17.9599 50.9058 20.916L50.9065 23.8025C50.2976 22.8205 49.4136 21.3134 48.2735 19.3107L45.7317 14.834V13.0833L45.0254 13.1591C44.2683 13.2418 43.6033 13.2833 43.032 13.2833C42.5059 13.2833 41.8838 13.2418 41.2183 13.161L40.5029 13.074V15.4908H41.7844C42.2817 15.4913 42.802 15.6973 43.3115 16.1903C43.8408 16.6674 44.5601 17.6385 45.356 19.0366L48.6958 24.8025L41.8455 35.4466C41.4685 36.0672 41.1704 36.4673 41.0322 36.5984C40.9744 36.663 40.8386 36.7153 40.7959 36.7098H40.4954H39.8584V39.1378L40.5852 39.0367C41.166 38.9564 41.6506 38.9178 42.0857 38.9178C42.5208 38.9178 43.053 38.9564 43.5798 39.0367L43.9976 39.0992L50.907 28.0984L50.9058 32.5029C50.907 33.7586 50.8951 34.7414 50.8689 35.44C50.8555 35.7883 50.8396 36.0672 50.8186 36.2663C50.8091 36.3664 50.7969 36.4466 50.7879 36.5016C50.7784 36.5548 50.772 36.5641 50.7747 36.5655L50.7574 36.6096L50.753 36.6328C50.7007 36.6595 50.4988 36.7141 50.1683 36.7098H48.6289V39.088L49.3111 39.0422C50.5013 38.9588 51.5611 38.9178 52.5323 38.9182C53.5037 38.9178 54.606 38.9588 55.7537 39.0422L56.4371 39.0899V36.7098H54.9405C54.6246 36.7117 54.4041 36.6661 54.3182 36.6297C54.3106 36.6263 54.3043 36.6232 54.2991 36.6216C54.2527 36.3049 54.1939 34.7972 54.2017 32.5029V28.1611L61.1551 39.098L61.5716 39.0367C62.1034 38.9564 62.5863 38.9178 63.0218 38.9178C63.4569 38.9178 63.9427 38.9564 64.5223 39.0367L65.2491 39.1378V36.7098H64.2689C64.2357 36.7098 64.1798 36.6962 64.0765 36.5984Z" fill="#FFF200"/>
<path d="M83.6238 13.2826L81.3909 13.1259L77.3843 22.0509L73.7776 29.7251L72.4981 32.413V20.6239C72.4981 19.0954 72.521 17.9062 72.5581 17.0577C72.5855 16.2785 72.656 15.7338 72.6778 15.6615L72.679 15.6622C72.6948 15.6267 73.0198 15.4813 73.6248 15.4918L74.1414 15.4906H74.7784V14.8697V13.0997L74.0867 13.1584C73.1209 13.2397 71.9785 13.2826 70.5728 13.2826C69.6016 13.2826 68.4993 13.2411 67.3064 13.1584L66.626 13.1102V15.4906H68.1228C68.4265 15.4894 68.636 15.5397 68.7305 15.5888C68.8247 15.6436 68.8164 15.6436 68.8406 15.7044C68.9253 15.9159 69.043 17.7272 69.0342 20.6239V31.3272C69.0342 33.5016 68.9915 35.9208 68.8189 38.7645L68.7686 39.598L69.6004 39.4077C70.2588 39.257 70.7798 39.1154 71.1824 38.9778C71.5894 38.8217 71.8587 38.7447 72.146 38.4316C72.3364 38.1806 72.544 37.7681 72.989 36.8895C73.4165 36.0317 74.0095 34.8003 74.7635 33.1781L81.0355 19.573C81.0272 20.2496 81.0272 20.7978 81.0272 21.21V30.6971C81.0272 32.455 81.0062 33.8137 80.9637 34.7791C80.9293 35.7287 80.8375 36.3595 80.8089 36.4036C80.7222 36.5734 80.6917 36.6773 80.0293 36.7098H79.2134H78.5765V39.0949L79.2645 39.0405C80.3196 38.9585 81.5049 38.9175 82.8692 38.9175C84.1441 38.9175 85.244 38.9585 86.2088 39.0405L86.9012 39.1004V36.7098H85.3612C85.0433 36.711 84.837 36.6514 84.753 36.602C84.6722 36.546 84.6805 36.5541 84.6563 36.4709L84.6512 36.4373L84.6434 36.4118C84.557 36.1779 84.4854 34.1844 84.4945 30.8228V21.21C84.4945 19.5332 84.5052 18.2233 84.5313 17.2906C84.5518 16.3756 84.6155 15.7566 84.639 15.7183L84.6485 15.6846L84.6549 15.6534C84.6734 15.6119 84.6353 15.6436 84.722 15.5888C84.8089 15.5433 85.0333 15.4894 85.3612 15.4906H86.9012V13.1202L86.2301 13.1569C84.7427 13.2385 83.8729 13.2807 83.6238 13.2826Z" fill="#FFF200"/>
<path d="M202.822 13.2833L200.59 13.1271L196.584 22.0509L192.978 29.7251L191.698 32.4132V20.6234C191.698 19.0959 191.72 17.905 191.758 17.0574C191.786 16.2785 191.855 15.7337 191.877 15.6622H191.877C191.895 15.6267 192.22 15.482 192.826 15.4913H193.34H193.977V14.8692V13.0992L193.285 13.1583C192.323 13.2404 191.178 13.2833 189.774 13.2821C188.803 13.2833 187.698 13.2404 186.508 13.1583L185.826 13.1104V15.4913H187.323C187.627 15.4898 187.836 15.5409 187.929 15.5888C188.024 15.6436 188.016 15.6436 188.04 15.7039C188.125 15.9147 188.242 17.7279 188.234 20.6234V31.3272C188.234 33.5023 188.191 35.9223 188.021 38.7652L187.968 39.5968L188.8 39.4077C189.459 39.2565 189.981 39.1166 190.383 38.9778C190.79 38.8212 191.058 38.7446 191.345 38.4316C191.536 38.1806 191.743 37.7674 192.189 36.8895C192.617 36.0317 193.209 34.801 193.963 33.1788L200.235 19.5756C200.228 20.2503 200.228 20.7984 200.228 21.2102V30.6978C200.228 32.4549 200.206 33.8137 200.162 34.7798C200.129 35.7294 200.038 36.36 200.009 36.4036C199.92 36.5729 199.891 36.6759 199.23 36.7097H198.412H197.775V39.0949L198.462 39.0412C199.519 38.9585 200.705 38.9177 202.068 38.9177C203.344 38.9177 204.443 38.9585 205.409 39.0412L206.101 39.0997V36.7097H204.561C204.244 36.7109 204.035 36.6513 203.953 36.6027C203.871 36.5448 203.88 36.5548 203.856 36.4709L203.85 36.4396L203.843 36.4124C203.757 36.1764 203.684 34.1844 203.695 30.8227V21.2102C203.695 19.5339 203.705 18.2254 203.731 17.2906C203.751 16.3751 203.816 15.758 203.839 15.7175L203.85 15.6803L203.855 15.6534C203.872 15.6126 203.836 15.6436 203.923 15.5888C204.007 15.5435 204.232 15.4886 204.561 15.4913H206.101V13.1202L205.43 13.1571C203.94 13.2384 203.069 13.2802 202.822 13.2833Z" fill="#FFF200"/>
<path d="M104.607 13.282C103.55 13.282 102.403 13.2417 101.257 13.1583L100.574 13.1092V15.4912H102.028C102.258 15.4912 102.434 15.5186 102.539 15.5503C102.592 15.5677 102.627 15.5844 102.643 15.5951L102.645 15.5925C102.71 15.669 102.81 15.8631 102.81 16.2131V16.2455L102.812 16.2718C102.937 17.5797 102.981 19.2446 102.98 21.2099V23.9853C101.943 24.043 100.681 24.0723 99.1482 24.0709C97.3081 24.0723 95.7561 24.0406 94.4968 23.9789V20.6234C94.4939 18.1968 94.5008 16.6132 94.5767 16.0846C94.6167 15.6895 94.6856 15.6075 94.6963 15.6013L94.7197 15.5789C94.7874 15.5477 95.1001 15.485 95.5791 15.4912H96.093H96.7298V13.1049L96.0452 13.1583C94.9861 13.2417 93.927 13.282 92.8272 13.282C91.7258 13.282 90.5361 13.2417 89.2581 13.1583L88.5791 13.1134V15.4912H90.1184C90.7044 15.5124 90.7649 15.6223 90.8176 15.7313C90.835 15.7317 90.9241 16.3011 90.9451 17.1282C90.9768 17.9722 90.9871 19.153 90.9871 20.6632V31.1183C90.9871 32.7727 90.9768 34.0601 90.9451 34.9738C90.9241 35.8669 90.8337 36.4672 90.8176 36.4682L90.8069 36.4925L90.7986 36.5206C90.791 36.5299 90.8108 36.5404 90.6809 36.6033C90.5552 36.6591 90.2981 36.7109 89.9465 36.7097H89.2161H88.5791V39.0755L89.2471 39.0419C90.9622 38.9587 92.2429 38.9177 93.1289 38.9177C94.0562 38.9177 95.0274 38.9587 96.042 39.0409L96.7298 39.096V36.7097H95.2786C94.9185 36.7047 94.8364 36.6463 94.7849 36.5983C94.7268 36.5435 94.6868 36.4963 94.6677 36.4696V36.4546L94.6511 36.3864C94.6243 36.2419 94.576 35.3414 94.5384 33.955C94.4968 32.828 94.4959 31.8734 94.4959 31.0337L94.4964 26.7483C95.69 26.6894 97.3235 26.6582 99.3614 26.6594C100.778 26.6589 101.987 26.688 102.981 26.7448V30.6977C102.981 32.9563 102.937 34.712 102.853 35.8147C102.835 36.0514 102.797 36.2543 102.755 36.3904C102.734 36.4601 102.711 36.5137 102.697 36.5416C102.69 36.5542 102.685 36.5623 102.683 36.5666L102.669 36.579L102.647 36.6076L102.645 36.6045C102.6 36.6379 102.367 36.714 101.985 36.7097H101.211H100.574V39.0922L101.259 39.0409C102.357 38.9587 103.588 38.9177 104.864 38.9189C106.009 38.9177 107.111 38.9587 108.167 39.0409L108.854 39.0948V36.7097H107.316C106.663 36.6856 106.649 36.5673 106.635 36.5206L106.625 36.4944L106.616 36.4701C106.614 36.4701 106.605 36.4415 106.593 36.3656C106.485 35.7911 106.445 33.8904 106.448 30.8236V21.2099C106.446 18.4478 106.449 16.7841 106.487 16.302C106.509 15.9435 106.586 15.686 106.628 15.5918C106.709 15.5558 106.951 15.4862 107.316 15.4912H108.854V13.1134L108.174 13.1583C106.94 13.2403 105.753 13.282 104.607 13.282Z" fill="#FFF200"/>
<path d="M111.139 13.1563L110.435 13.1432L110.49 13.8286C110.62 15.3666 110.662 16.5685 110.661 17.3894L110.605 20.0694H112.62L112.837 17.1822C112.857 16.7271 112.9 16.4004 112.949 16.2083C112.957 16.1711 112.968 16.1379 112.977 16.1117C113.309 16.0566 114.311 15.9906 115.726 15.9963H116.309C116.346 17.4671 116.38 19.0593 116.38 20.7473V30.655C116.38 32.7471 116.334 34.4997 116.25 35.779C116.23 36.0511 116.2 36.2754 116.165 36.4204C116.147 36.4924 116.129 36.5441 116.115 36.5703C116.115 36.5713 116.114 36.5739 116.114 36.5758L116.077 36.6118L116.059 36.6424C116.009 36.664 115.849 36.7139 115.598 36.7108H113.97V39.0842L114.648 39.0413C115.971 38.9586 117.164 38.9181 118.091 38.9181C119.06 38.9181 120.21 38.9586 121.576 39.0425L122.252 39.0842V36.7108H120.756C120.429 36.7108 120.197 36.6609 120.084 36.6095C119.979 36.5591 119.988 36.5441 119.984 36.546C119.983 36.5487 119.976 36.5193 119.966 36.4426C119.883 35.8594 119.843 33.9201 119.846 30.7396L119.845 20.8331C119.845 19.1668 119.879 17.5348 119.945 15.9963H120.241C121.342 15.9963 122.22 16.0366 123.058 16.1181C123.099 16.1236 123.138 16.1324 123.168 16.1405C123.194 16.3027 123.236 16.6996 123.259 17.2127L123.419 20.0694H125.375L125.39 19.4636C125.434 17.6636 125.519 15.7836 125.648 13.8181L125.693 13.1427L118.593 13.2831C117.848 13.2831 115.393 13.2404 111.139 13.1563Z" fill="#FFF200"/>
<path d="M133.115 24.3058L133.114 20.9572C133.114 19.2475 133.115 17.5808 133.181 16.0637C133.878 15.7497 134.489 15.6179 135.056 15.6167C136.244 15.6284 137.023 15.9953 137.594 16.748C138.168 17.5135 138.461 18.6343 138.461 20.201C138.46 21.812 138.171 22.9874 137.612 23.8619C137.049 24.6727 136.453 24.9801 135.573 24.9951C135.217 24.9967 134.725 24.8954 134.078 24.6568L133.115 24.3058ZM136.176 13.0305C135.744 13.0305 135.185 13.0742 134.501 13.1176C133.438 13.1567 132.458 13.1991 131.574 13.1991C130.071 13.1991 128.828 13.1991 127.906 13.1567L127.24 13.1257V15.491H128.434C128.775 15.4896 129.035 15.532 129.181 15.5831C129.255 15.6086 129.301 15.6353 129.318 15.6477L129.33 15.6527L129.341 15.6775L129.36 15.7061C129.416 15.7085 129.588 16.6931 129.604 18.1623L129.647 21.7223V30.9489C129.604 33.7438 129.562 35.3965 129.521 35.8972C129.502 36.1495 129.47 36.35 129.438 36.4773C129.42 36.541 129.404 36.5848 129.394 36.6037C129.392 36.606 129.392 36.6079 129.391 36.6094L129.377 36.6242L129.361 36.643C129.325 36.6616 129.176 36.7114 128.909 36.71H127.24V39.0734L127.908 39.0417C129.666 38.959 130.908 38.918 131.617 38.918C132.369 38.918 133.478 38.959 134.846 39.0417L135.52 39.0842V36.71H134.068C133.74 36.71 133.512 36.6597 133.408 36.6094C133.3 36.5533 133.318 36.5502 133.304 36.5235L133.293 36.4918L133.284 36.4687C133.283 36.4687 133.275 36.4413 133.261 36.366C133.154 35.7921 133.111 33.8962 133.116 30.8649L133.115 24.6653L133.502 27.0269L133.888 27.1375C134.639 27.3509 135.241 27.4963 135.83 27.4989C137.028 27.502 138.126 27.0474 139.145 26.2756C140.145 25.4877 140.903 24.4632 141.409 23.2C141.951 21.9693 142.229 20.663 142.228 19.3203C142.231 17.503 141.769 15.9574 140.797 14.7743C139.774 13.5734 138.171 13.0243 136.176 13.0305Z" fill="#FFF200"/>
<path d="M147.459 24.6934C147.458 22.7746 147.711 21.0749 148.197 19.6892C148.692 18.2406 149.33 17.212 150.129 16.5061C150.873 15.9165 151.682 15.5705 152.632 15.5035V15.5109L153.103 15.5295L153.905 15.932V15.5999C154.723 15.7367 155.42 16.0781 156.054 16.6639C156.989 17.4619 157.713 18.6485 158.248 20.3422C158.826 21.9861 159.083 24.0225 159.082 26.4572C159.082 28.7634 158.827 30.6772 158.336 32.2357C157.84 33.8112 157.194 34.9158 156.379 35.5993C155.592 36.322 154.797 36.6646 153.828 36.7051L153.315 36.6696C152.302 36.5919 151.439 36.2121 150.626 35.4219C149.689 34.5477 148.912 33.2204 148.335 31.3576C147.756 29.5015 147.458 27.2478 147.459 24.6934ZM153.905 12.7849V12.7574L153.248 12.7794H152.632V12.8166C150.095 13.0586 147.973 14.3453 146.389 16.524C144.657 19.0181 143.819 22.2181 143.819 26.1215C143.819 28.695 144.171 30.9893 144.887 33.0394C145.647 35.101 146.697 36.6305 147.998 37.7189C149.303 38.827 150.855 39.3949 152.632 39.4231V39.4686L153.294 39.4243H153.905V39.362C156.353 39.0249 158.421 37.6013 160.031 35.2436C161.926 32.5585 162.806 29.1895 162.806 25.2401C162.806 21.5911 162.058 18.5994 160.413 16.2791C158.847 14.0916 156.619 12.875 153.905 12.7849Z" fill="#FFF200"/>
<path d="M174.368 13.2833C172.788 13.2833 169.563 13.2396 164.535 13.1564L163.887 13.1457V15.4913H165.427C166.018 15.5223 166.071 15.6176 166.155 15.7848C166.237 16.1486 166.302 17.8845 166.293 20.6242L166.292 31.0755C166.3 34.2753 166.234 36.1592 166.141 36.4682C166.145 36.5007 166.033 36.694 165.255 36.7098H164.523H163.887V39.077L164.557 39.042C166.184 38.9585 167.463 38.9177 168.434 38.9177C169.45 38.9177 170.42 38.9585 171.344 39.0408L172.037 39.1016V36.7098H170.629C170.403 36.7071 170.241 36.6661 170.033 36.5579C170.036 36.5586 170.036 36.5579 170.036 36.5579C170.004 36.5293 169.912 36.2825 169.888 35.8233L169.845 33.9992C169.803 32.8679 169.803 31.9156 169.803 31.0755V20.6628C169.803 19.1271 169.803 17.5984 169.864 16.079C170.827 16.0237 172.392 15.9955 174.495 15.9967C175.917 15.9955 176.979 16.0203 177.7 16.0689C177.778 18.9624 177.816 20.6764 177.816 21.2102V30.7395C177.824 34.0426 177.719 36.0355 177.634 36.4148C177.571 36.5567 177.451 36.6897 176.862 36.7098H176.046H175.409V37.3315V39.0937L176.096 39.0408C177.148 38.9585 178.336 38.9177 179.658 38.9187C180.975 38.9177 182.075 38.9585 182.994 39.0408L183.689 39.1016V36.7098H182.149C181.482 36.6661 181.506 36.5951 181.436 36.426C181.37 36 181.281 34.0421 181.282 30.8227V21.2102C181.281 18.0423 181.332 16.1424 181.402 15.7712L181.407 15.7423L181.408 15.7182C181.424 15.6498 181.405 15.6715 181.485 15.6119C181.568 15.5583 181.791 15.4886 182.149 15.4913H183.689V13.144L183.039 13.1564C178.229 13.2396 175.342 13.2833 174.368 13.2833Z" fill="#FFF200"/>
<path d="M226.17 16.3024L226.172 16.2795V16.2559C226.169 15.9269 226.249 15.6935 226.302 15.5967C226.374 15.5573 226.619 15.4882 226.996 15.4908H228.493V13.1119L227.813 13.1567C226.578 13.2399 225.388 13.2835 224.245 13.2835C223.188 13.2835 222.085 13.2399 220.895 13.1567L220.213 13.1107V15.4908H221.707C221.938 15.4908 222.098 15.5187 222.189 15.5485C222.279 15.579 222.28 15.596 222.283 15.5929L222.306 15.6208L222.334 15.6482C222.363 15.6618 222.46 15.8422 222.491 16.2645C222.575 17.5763 222.619 19.2435 222.618 21.2114V23.9861C221.6 24.0426 220.319 24.0712 218.828 24.0712C216.987 24.0712 215.404 24.0395 214.136 23.9799V20.6244C214.135 18.1949 214.179 16.6433 214.218 16.0449C214.255 15.6866 214.324 15.6076 214.332 15.6053L214.351 15.5871C214.424 15.5492 214.771 15.4858 215.258 15.4908H215.732H216.369V13.1042L215.682 13.1567C214.623 13.2399 213.567 13.2823 212.465 13.2835C211.364 13.2823 210.217 13.2399 208.938 13.1567L208.26 13.1143V15.4908H209.757C210.407 15.5137 210.422 15.6339 210.437 15.6787L210.444 15.7035L210.454 15.7278C210.475 15.744 210.571 16.3093 210.605 17.1352C210.647 17.9792 210.669 19.1572 210.668 20.664V31.1179C210.669 32.7697 210.647 34.0548 210.609 34.9696C210.581 35.7907 210.517 36.3598 210.486 36.4971C210.443 36.5729 210.282 36.6974 209.627 36.7105H208.897H208.26V39.0754L208.93 39.0429C210.599 38.9588 211.926 38.9178 212.809 38.9178C213.737 38.9178 214.708 38.9588 215.678 39.0415L216.369 39.0994V36.7105H214.959C214.786 36.7105 214.648 36.6907 214.574 36.6669C214.537 36.6576 214.514 36.6464 214.506 36.6416L214.505 36.6409L214.467 36.5953L214.41 36.5508C214.298 36.4525 214.311 36.4492 214.286 36.3822C214.261 36.2079 214.214 35.3155 214.178 33.9553C214.136 32.8281 214.135 31.873 214.135 31.0347L214.136 26.7487C215.329 26.6891 216.969 26.6581 219.043 26.6581C220.458 26.6581 221.635 26.6879 222.619 26.7444V30.6981C222.619 32.9552 222.575 34.7128 222.491 35.815C222.471 36.068 222.442 36.2825 222.407 36.4227C222.389 36.4916 222.37 36.5426 222.36 36.5662C222.358 36.5693 222.357 36.572 222.356 36.5736L222.345 36.5829L222.328 36.6065L222.326 36.6054C222.282 36.6363 222.047 36.7122 221.665 36.7105H220.85H220.213V39.0925L220.898 39.0415C221.994 38.9588 223.224 38.9178 224.545 38.9178C225.647 38.9178 226.747 38.9588 227.805 39.0415L228.493 39.0944V36.7105H226.953C226.302 36.6843 226.289 36.5674 226.273 36.521C226.248 36.4754 226.174 35.8503 226.144 34.9019C226.106 33.9391 226.084 32.5813 226.084 30.8237V21.2114C226.084 18.4501 226.13 16.805 226.17 16.3024Z" fill="#FFF200"/>
<path d="M238.23 4.29103C241.088 4.29103 243.415 6.56291 243.415 9.35503C243.415 12.1469 241.088 14.4188 238.23 14.4188C235.373 14.4188 233.046 12.1469 233.046 9.35503C233.046 6.56291 235.373 4.29103 238.23 4.29103ZM232.072 9.35503C232.072 12.6712 234.836 15.3667 238.23 15.3667C241.625 15.3667 244.387 12.6712 244.387 9.35503C244.387 6.03935 241.625 3.34308 238.23 3.34308C234.836 3.34308 232.072 6.03935 232.072 9.35503Z" fill="#FFF200"/>
<path d="M237.37 8.99817H238.615C239.38 8.99817 239.489 8.5621 239.489 8.28911C239.489 7.73431 239.152 7.56718 238.565 7.56718H237.37V8.99817ZM236.007 6.47117H238.962C239.549 6.47117 240.924 6.61613 240.924 8.07453C240.924 9.02487 240.297 9.35269 239.918 9.48263V9.50147C240.719 9.72463 240.733 10.4561 240.743 10.8678C240.761 11.5831 240.761 11.8163 240.964 12.1074H239.58C239.331 11.7552 239.422 11.5345 239.349 10.6738C239.291 9.99761 238.575 10.0288 238.417 10.0288H237.37V12.1074H236.007V6.47117Z" fill="#FFF200"/>
</g>
</g>
<defs>
<clipPath id="clip0_240_3">
<rect width="254" height="51" fill="white"/>
</clipPath>
</defs>
</svg>
