<svg width="93" height="157" viewBox="0 0 93 157" fill="none" xmlns="http://www.w3.org/2000/svg">
<path d="M30.728 91.6484L30.9434 90.4966L29.772 90.4649L15.837 90.0885C12.0147 89.9853 8.43896 89.8232 5.75927 89.6456C4.41787 89.5568 3.31058 89.4646 2.51266 89.3752C2.11197 89.3302 1.80335 89.2875 1.58776 89.2486C1.53209 89.2386 1.48655 89.2295 1.45007 89.2216C1.40207 89.1573 1.31016 89.0157 1.21474 88.7547C1.08512 88.4002 1.00183 87.9643 1.00003 87.5509C1.00008 87.553 1.00017 87.5541 1.00038 87.5542C1.00203 87.5543 1.01064 87.481 1.05472 87.2861C1.10244 87.0752 1.17586 86.787 1.27563 86.4213C1.47471 85.6917 1.76917 84.688 2.14764 83.4449C2.904 80.9605 3.98769 77.5464 5.29457 73.5116C7.90787 65.4434 11.4082 54.9096 14.9545 44.4027C18.5008 33.8958 22.0916 23.4195 24.8859 15.466C26.2833 11.4886 27.48 8.14638 28.3716 5.74812C28.8178 4.54793 29.185 3.59122 29.4614 2.91196C29.6 2.57125 29.712 2.30989 29.7971 2.12627C29.8399 2.03396 29.8715 1.97085 29.8928 1.93153C29.8932 1.93085 29.8935 1.93019 29.8939 1.92954C30.111 1.68885 30.5361 1.38339 33.0814 1.21094C35.7086 1.03293 40.2726 1 48.5407 1C54.1265 1 58.8302 1.07578 62.2428 1.21038C63.9508 1.27775 65.3239 1.35942 66.3181 1.45235C66.8165 1.49893 67.2054 1.54706 67.4873 1.59494C67.7489 1.63938 67.8419 1.67213 67.8429 1.66963C67.843 1.66951 67.8428 1.66929 67.8424 1.669C68.0344 1.77775 68.267 2.00758 68.4571 2.34355C68.6503 2.68486 68.75 3.04888 68.75 3.34166C68.75 3.33651 68.7491 3.34196 68.746 3.36001C68.7369 3.41272 68.7093 3.57292 68.6325 3.89118C68.5417 4.26735 68.4053 4.7762 68.2259 5.40712C67.8677 6.66704 67.3476 8.38167 66.7031 10.4304C65.4147 14.5262 63.636 19.9355 61.6786 25.6679C59.719 31.4069 57.9373 36.6568 56.6453 40.4919C55.9994 42.4093 55.4755 43.9743 55.1128 45.0704C54.9316 45.6181 54.7899 46.0512 54.6931 46.3535C54.6449 46.5039 54.6064 46.6263 54.5795 46.7158C54.5663 46.7596 54.5538 46.8023 54.5438 46.8394C54.5418 46.8466 54.5396 46.8551 54.5372 46.8645C54.5337 46.8781 54.5299 46.8937 54.5262 46.91C54.5232 46.9236 54.5184 46.946 54.514 46.9732L54.5138 46.9741C54.511 46.991 54.5 47.0574 54.5 47.1415C54.5 47.6907 54.9086 47.9537 54.9642 47.9895L54.9644 47.9897C55.0766 48.0619 55.1788 48.096 55.2163 48.108C55.3053 48.1367 55.3882 48.151 55.431 48.1578C55.531 48.1739 55.6515 48.1858 55.7735 48.1955C56.026 48.2157 56.3838 48.2341 56.8264 48.2513C57.716 48.2857 58.9952 48.3166 60.5654 48.3424C63.7079 48.3941 68.0385 48.4261 72.7995 48.4261C78.037 48.4261 82.4895 48.5026 85.7369 48.6375C87.3623 48.705 88.6742 48.7867 89.6271 48.8793C90.1048 48.9258 90.4781 48.9736 90.7492 49.021C91.0007 49.0651 91.0906 49.0972 91.0915 49.0949C91.0915 49.0947 91.0912 49.0944 91.0906 49.094C91.5198 49.3346 91.9467 50.0085 91.9954 50.7124C91.9755 50.7574 91.9473 50.8173 91.9091 50.8941C91.7926 51.1282 91.6121 51.4607 91.3655 51.8927C90.8743 52.7534 90.1481 53.962 89.2161 55.4738C87.3535 58.4951 84.6874 62.6975 81.4781 67.6869C75.0604 77.6642 66.4817 90.7719 57.841 103.836C49.2002 116.901 40.4998 129.918 33.8388 139.715C30.5078 144.614 27.6897 148.704 25.645 151.59C24.6219 153.034 23.7976 154.17 23.2018 154.953C22.9028 155.346 22.6698 155.639 22.5025 155.834C22.4587 155.885 22.4224 155.926 22.3931 155.958C21.9963 156.054 21.4122 155.991 20.7959 155.701C20.1711 155.408 19.7095 154.972 19.5022 154.557C19.5073 154.444 19.5209 154.276 19.5451 154.046C19.5943 153.578 19.6811 152.912 19.8037 152.061C20.0485 150.363 20.4302 147.97 20.92 145.054C21.8992 139.225 23.3071 131.329 24.9072 122.774L23.9242 122.59L24.9072 122.774L30.728 91.6484ZM1.34272 89.194C1.34295 89.194 1.34722 89.1953 1.3548 89.1981C1.34628 89.1955 1.3425 89.1941 1.34272 89.194ZM29.9094 1.90241C29.9094 1.90247 29.9086 1.90391 29.9069 1.90654C29.9086 1.90366 29.9094 1.90235 29.9094 1.90241ZM35.5874 85.2266C35.5874 85.2265 35.5872 85.2263 35.5866 85.226C35.7793 85.3333 36.0159 85.5641 36.2092 85.897C36.4047 86.2338 36.5 86.5793 36.5 86.8379C36.5 86.8365 36.4982 86.8877 36.4829 87.0266C36.4691 87.152 36.4478 87.3191 36.4187 87.5285C36.3606 87.9465 36.2741 88.513 36.1617 89.2134C35.9369 90.6132 35.6111 92.53 35.2083 94.8272C34.403 99.4205 33.2917 105.522 32.069 112.023C30.8453 118.529 29.7552 124.467 28.9844 128.794C28.5991 130.957 28.2931 132.72 28.09 133.951C27.9886 134.566 27.9118 135.054 27.8636 135.395C27.8398 135.564 27.8213 135.708 27.8105 135.818C27.8055 135.869 27.8001 135.934 27.7988 135.997C27.7982 136.025 27.7977 136.082 27.8049 136.151C27.8084 136.183 27.8166 136.248 27.8387 136.326L27.8388 136.326C27.8526 136.375 27.9103 136.579 28.0946 136.764C28.3237 136.936 28.7932 137.058 28.9955 137.04C29.1072 137.012 29.2751 136.941 29.3341 136.907C29.4298 136.848 29.4951 136.785 29.5129 136.768L29.5135 136.767C29.5626 136.72 29.6024 136.672 29.622 136.649C29.6691 136.592 29.724 136.52 29.7802 136.444C29.8964 136.288 30.0592 136.059 30.2624 135.77C30.6706 135.188 31.2597 134.331 32.0023 133.242C33.4882 131.062 35.5971 127.936 38.1198 124.179C43.1658 116.665 49.8716 106.62 56.5699 96.5499C63.2682 86.48 69.9597 76.3844 74.977 68.7699C77.4855 64.9629 79.5765 61.7746 81.0408 59.5193C81.7726 58.3922 82.3499 57.4952 82.745 56.8695C82.9419 56.5576 83.0971 56.3077 83.2045 56.1285C83.2573 56.0403 83.3042 55.9599 83.34 55.8939C83.357 55.8626 83.3791 55.8207 83.3995 55.7761C83.4093 55.7548 83.4258 55.7174 83.4419 55.6712C83.4467 55.6576 83.5 55.5161 83.5 55.3319C83.5 54.9354 83.2793 54.6845 83.1692 54.584C83.056 54.4806 82.9449 54.4261 82.8944 54.403C82.7864 54.3536 82.6862 54.3294 82.6385 54.3185C82.5272 54.2931 82.3999 54.2757 82.2825 54.2624C82.0365 54.2345 81.6941 54.2096 81.2786 54.1867C80.4414 54.1407 79.2412 54.0997 77.772 54.0653C74.8304 53.9966 70.7786 53.954 66.3255 53.954C58.3099 53.954 53.7701 53.8681 51.1237 53.5111C49.7995 53.3325 49.0645 53.0986 48.6312 52.8473C48.3078 52.6596 48.1267 52.4487 47.9868 52.1422C47.996 52.0747 48.0112 51.9823 48.0347 51.8615C48.0999 51.5261 48.2131 51.0475 48.3741 50.432C48.695 49.2053 49.1903 47.493 49.824 45.4152C51.0904 41.2627 52.8993 35.6854 54.9442 29.6878C54.9442 29.6878 54.9442 29.6878 54.9442 29.6877L62.391 7.85071L62.8421 6.52795H61.4445H47.6812H33.9187H33.2067L32.9737 7.20088L29.5215 17.1754C27.4519 23.1544 21.8964 39.541 16.8596 54.4677C14.341 61.932 11.9514 69.0329 10.1914 74.2873C9.31151 76.9144 8.58864 79.0808 8.08561 80.6006C7.83421 81.3602 7.63712 81.9601 7.50263 82.3757C7.43557 82.5829 7.38301 82.7476 7.34679 82.8645C7.32894 82.9221 7.31335 82.9736 7.30157 83.0149C7.29595 83.0346 7.28889 83.0599 7.28246 83.0859C7.2794 83.0983 7.27423 83.1199 7.2692 83.1458C7.26859 83.1489 7.25 83.2354 7.25 83.3427C7.25 83.8899 7.65623 84.1524 7.71149 84.1881L7.71159 84.1882C7.82305 84.2602 7.92401 84.2938 7.95981 84.3054C8.04554 84.3331 8.12321 84.3463 8.15906 84.3521C8.245 84.3659 8.34454 84.3756 8.43899 84.3832C8.63636 84.399 8.91285 84.4133 9.25074 84.4264C9.93096 84.4528 10.9072 84.4764 12.1036 84.4962C14.4985 84.5357 17.7979 84.5602 21.4245 84.5602C25.2359 84.5602 28.6631 84.6417 31.2356 84.7787C32.5235 84.8473 33.5853 84.9292 34.3692 85.0201C34.7622 85.0657 35.0717 85.1119 35.2983 85.1569C35.5098 85.1988 35.5867 85.2282 35.5874 85.2266ZM47.923 51.989C47.9231 51.9894 47.9233 51.9898 47.9234 51.9901C47.9233 51.9898 47.9232 51.9896 47.9231 51.9893L47.923 51.989Z" fill="#FCEE03" stroke="#FCEE03" stroke-width="2"/>
</svg>
