<svg width="273" height="298" viewBox="0 0 273 298" fill="none" xmlns="http://www.w3.org/2000/svg">
<g clip-path="url(#clip0_0_90)">
<path d="M107.671 22.2476C106.972 21.804 106.045 22.0115 105.601 22.7111C105.158 23.4108 105.365 24.3376 106.065 24.7812L107.671 22.2476ZM51.0994 218.003L66.9784 224.921L65.0301 207.711L51.0994 218.003ZM106.065 24.7812C147.525 51.0712 177.637 74.7438 196.488 95.7929C215.384 116.89 222.696 135.04 219.325 150.392C215.955 165.738 201.756 178.989 175.838 189.896C149.978 200.778 112.831 209.16 64.3174 214.997L64.6758 217.976C113.296 212.126 150.764 203.703 177.002 192.661C203.182 181.643 218.563 167.851 222.255 151.035C225.946 134.225 217.802 115.094 198.723 93.7914C179.601 72.4408 149.221 48.5949 107.671 22.2476L106.065 24.7812Z" fill="#FCEE03"/>
</g>
<defs>
<clipPath id="clip0_0_90">
<rect width="195" height="241" fill="white" transform="translate(92.2267) rotate(22.5)"/>
</clipPath>
</defs>
</svg>
