<svg width="142" height="150" viewBox="0 0 142 150" fill="none" xmlns="http://www.w3.org/2000/svg">
<path fill-rule="evenodd" clip-rule="evenodd" d="M108.028 12.91C102.44 20.0104 97.7817 26.3525 97.6765 27.0047C97.3195 29.223 98.5851 29.8828 103.197 29.8828H107.508V33.8672C107.508 36.1852 107.802 38.1457 108.209 38.5547C108.707 39.0533 112.199 39.2578 120.202 39.2578H131.493L132.063 37.7549C132.376 36.9281 132.632 34.8187 132.632 33.0674V29.8828H136.606C140.797 29.8828 141.986 29.3051 141.973 27.2754C141.969 26.6133 137.36 20.2254 131.701 13.0371C122.728 1.63945 121.234 0 119.813 0C118.393 0 116.909 1.62656 108.028 12.91ZM44.1134 11.4902C33.1873 16.4959 23.757 21.0721 23.1569 21.6598C22.5119 22.2914 20.925 26.7645 19.2738 32.6045C13.7745 52.0523 7.42742 75.5408 3.74526 90.0697C0.452236 103.062 0 105.511 0 110.352C0 117.076 0.647971 118.143 6.04792 120.311C8.16303 121.16 13.0465 124.202 17.3281 127.339C30.7982 137.206 39.6986 141.959 49.5023 144.521C54.1415 145.733 57.0886 146.072 65.1915 146.326C75.7846 146.658 82.2923 146.137 93.3248 144.074L99.8833 142.847L104.134 144.601C113.211 148.346 121.795 150 132.151 150C136.315 150 140.229 149.727 140.851 149.394C142.087 148.73 142.436 145.663 141.352 144.991C141.006 144.777 137.738 144.64 134.09 144.687C123.62 144.821 114.773 143.093 105.344 139.072L100.551 137.027L94.6984 138.244C81.6274 140.96 68.3788 141.806 58.1363 140.577C45.9773 139.119 35.1768 133.818 17.3217 120.544C14.4762 118.429 10.5977 116.118 8.70349 115.407L5.25856 114.115L5.25973 110.231C5.26148 106.056 7.50513 96.5197 15.549 66.5039C19.972 49.9992 26.7754 25.6729 27.0319 25.4479C27.3731 25.1479 64.5073 8.25059 64.5716 8.36602C64.6113 8.4375 67.3206 11.993 70.5926 16.2668C73.864 20.5406 76.5412 24.4143 76.5412 24.8742C76.5412 26.2752 64.1807 39.8438 62.9046 39.8438C62.2771 39.8438 60.4985 38.6572 58.9525 37.207C55.7869 34.2375 55.1225 34.0758 52.994 35.7551C51.4111 37.0037 45.4024 38.4105 44.374 37.773C43.5151 37.241 40.8999 39.099 40.8999 40.2416C40.8999 40.7678 41.5443 42.0451 42.332 43.0805C43.7237 44.9104 43.7979 45.535 44.9887 65.3133C46.1368 84.3861 46.1532 85.8457 45.2522 88.5668C44.7228 90.1641 43.6466 92.1674 42.8596 93.0187C41.2318 94.7801 41.2066 97.0828 42.8041 98.0854C44.9945 99.4605 48.9478 95.5301 50.3536 90.5807C51.2896 87.2848 52.0574 86.5301 56.8713 84.1764C64.6528 80.3713 71.94 79.977 79.8862 82.9307C86.7855 85.4953 93.1956 91.5451 94.765 96.9727C95.6473 100.024 96.2643 100.781 97.8676 100.781C99.8956 100.781 100.703 99.3768 100.262 96.6152C99.8016 93.7277 98.8807 91.8574 96.1585 88.2814L94.1071 85.5861L96.8638 82.7584C100.298 79.2363 104.106 76.5932 108.172 74.9104C110.617 73.899 112.526 73.6055 116.857 73.5744C123.654 73.5264 128.623 74.9449 134.918 78.7324C139.876 81.7148 141.563 81.6949 141.868 78.6498C142.024 77.0977 141.689 76.6131 139.348 74.9977C135.585 72.4008 129.815 69.8713 125.171 68.782C119.837 67.5305 111.358 67.9195 106.632 69.6328C102.361 71.1814 96.5003 75.1189 92.7171 78.9826L89.9038 81.8555L86.1994 79.8826C76.2222 74.5699 64.5166 74.2383 54.8152 78.9932L51.4947 80.6209L51.1599 76.4924C50.9759 74.2213 50.5657 67.6172 50.2484 61.8164C49.9312 56.0156 49.5157 49.3576 49.3258 47.0215C48.9875 42.8672 49.0103 42.7729 50.3448 42.7471C51.0951 42.7324 52.4979 42.3768 53.462 41.9561C55.1091 41.2377 55.3451 41.308 57.3708 43.1209C59.9002 45.385 62.9677 46.1437 65.4386 45.1178C66.98 44.4773 72.2607 39.0492 79.2605 30.9094C81.8798 27.8637 82.5996 25.6477 81.836 22.9793C81.5631 22.023 78.0907 16.9928 74.1199 11.8002C68.1626 4.01016 66.6452 2.3625 65.4398 2.37481C64.6364 2.38301 55.0396 6.48516 44.1134 11.4902ZM126.94 15.8455L133.809 24.6094H131.217C127.572 24.6094 126.79 25.6002 126.79 30.2174V33.9844H119.778H112.767V30C112.767 27.682 112.474 25.7215 112.066 25.3125C111.68 24.9258 110.212 24.6094 108.804 24.6094C107.395 24.6094 106.33 24.3861 106.437 24.1125C106.75 23.3139 119.457 7.10273 119.778 7.0916C119.939 7.08574 123.161 11.025 126.94 15.8455ZM108.209 42.3047C107.367 43.1496 107.262 52.0225 108.08 53.3203C108.541 54.0516 110.51 54.1992 119.803 54.1992C130.185 54.1992 131.032 54.1189 131.803 53.0619C132.766 51.7418 132.932 45.3961 132.063 43.1045L131.493 41.6016H120.202C112.199 41.6016 108.707 41.8061 108.209 42.3047ZM126.79 47.7539C126.79 48.4863 125.621 48.6328 119.778 48.6328C113.935 48.6328 112.767 48.4863 112.767 47.7539C112.767 47.0215 113.935 46.875 119.778 46.875C125.621 46.875 126.79 47.0215 126.79 47.7539ZM108.209 56.9531C107.265 57.9006 107.322 60.0527 108.315 60.8789C108.873 61.3436 112.49 61.5006 120.076 61.3904C130.299 61.241 131.08 61.152 131.776 60.0586C132.269 59.2834 132.349 58.4402 132.011 57.5684C131.507 56.2641 131.379 56.25 120.206 56.25C112.199 56.25 108.707 56.4545 108.209 56.9531ZM29.9153 110.859C27.9253 112.855 30.9828 117.68 37.8423 123.372C45.892 130.051 55.8383 133.616 66.9005 133.787C79.226 133.978 84.1737 132.639 83.3469 129.337C82.8515 127.357 81.5608 126.998 77.6712 127.758C72.4167 128.785 62.2438 128.511 57.1757 127.206C48.8923 125.074 40.7614 119.895 35.847 113.622C33.1026 110.119 31.4304 109.34 29.9153 110.859ZM122.842 113.178C122.442 113.579 122.115 114.686 122.115 115.638C122.115 119.312 128.193 123.169 136.599 124.827C140.663 125.629 141.981 125.122 141.981 122.754C141.981 120.877 140.997 120.267 135.84 118.944C130.698 117.625 128.178 116.245 127.164 114.196C126.385 112.619 123.966 112.05 122.842 113.178Z" fill="#FCEE03"/>
</svg>
