<svg width="165" height="166" viewBox="0 0 165 166" fill="none" xmlns="http://www.w3.org/2000/svg">
<path fill-rule="evenodd" clip-rule="evenodd" d="M35.4981 13.3972C17.0715 20.7488 1.54647 27.1343 0.99723 27.5866C0.19903 28.2459 0 30.8339 0 40.57C0 75.4896 8.60891 107.482 24.3399 131.021C29.6027 138.896 41.8837 151.322 49.0799 156.054C55.4191 160.222 65.9448 165.452 68.9781 165.942C74.4351 166.822 90.7375 157.598 101.329 147.638C105.195 144.002 108.588 141.339 109.105 141.536C109.609 141.728 110.708 144.186 111.548 146.998C112.387 149.809 113.543 152.775 114.116 153.589C116.483 156.95 123.421 156.773 126.183 153.283C127.332 151.83 127.601 150.485 127.601 146.193V140.896L131.462 139.305C133.585 138.43 136.855 136.666 138.727 135.385C140.599 134.104 142.406 133.057 142.743 133.057C143.08 133.057 144.726 134.25 146.401 135.708C151.978 140.566 155.137 141.194 158.754 138.167C160.51 136.698 160.888 135.872 160.888 133.499C160.888 131.155 160.306 129.846 157.773 126.492C153.467 120.791 152.946 118.953 154.229 113.98C155.914 107.448 156.227 103.266 155.417 98.0802C154.999 95.3936 154.495 92.778 154.299 92.2671C154.078 91.6885 155.53 90.2956 158.144 88.5792C164.718 84.2617 166.603 80.0401 163.632 76.2854C161.385 73.4443 158.578 73.334 152.286 75.8392L146.817 78.0169L143.684 74.9021L140.552 71.7873L143.173 64.3977C145.572 57.6302 145.724 56.78 144.974 54.2899C144.463 52.597 143.451 51.1702 142.293 50.5096L140.43 49.4484L140.657 40.6948C140.781 35.8795 140.607 30.8849 140.272 29.5954L139.66 27.2508L105.38 13.6096C86.5267 6.10695 70.6286 -0.0172032 70.0516 3.63078e-05C69.4739 0.0172758 53.9253 6.04626 35.4981 13.3972ZM37.6853 18.3173L5.67547 31.0876L5.40987 34.6638C4.99724 40.2094 6.05342 58.1667 7.28436 66.5437C13.9397 111.812 32.6679 142.772 62.132 157.21C65.9815 159.097 69.5724 160.64 70.1119 160.64C70.6508 160.64 74.2395 159.104 78.087 157.228C85.6432 153.542 94.2257 147.523 99.1002 142.493L102.153 139.342L100.325 138.886C98.2542 138.369 94.3922 140.337 89.4962 144.404C86.2791 147.078 82.5385 147.675 80.1036 145.904C78.976 145.085 78.3408 145.174 75.2902 146.587C73.3574 147.482 71.0183 148.217 70.0925 148.221C67.3976 148.232 57.435 143.074 51.3608 138.523C29.29 121.985 16.7241 91.2189 15.4689 50.6441C15.1374 39.9273 15.2386 37.3897 16.0264 36.7442C17.1096 35.8568 68.9476 15.139 70.0856 15.139C71.3741 15.139 123.06 35.9085 123.991 36.8001C125.299 38.0538 125.713 46.0046 124.964 55.4794C124.604 60.0306 124.418 63.8757 124.551 64.0247C124.923 64.4405 127.303 61.5091 131.21 55.8242L134.764 50.6524L135.08 40.9803L135.394 31.3076L103.585 18.7745C86.0898 11.8808 71.3075 6.08419 70.7354 5.89318C70.1632 5.70216 55.2908 11.2933 37.6853 18.3173ZM45.2588 30.5477L20.8219 40.3087L20.8135 47.3038C20.8024 56.1069 21.8101 66.4044 23.6374 76.1668C29.6104 108.073 43.0258 129.319 63.9163 139.956L69.7617 142.932L73.1112 141.66C75.648 140.696 76.6855 139.853 77.3866 138.185C77.8956 136.973 79.0634 135.091 79.9809 134.002C80.8984 132.914 82.4441 130.854 83.4164 129.425L85.1834 126.827L82.8006 122.893C81.4899 120.729 79.9004 117.328 79.2687 115.335C78.1383 111.769 78.0544 111.69 73.908 110.336C71.5911 109.579 68.3401 108.752 66.6833 108.498C60.8352 107.6 57.8685 103.167 59.8927 98.3505C61.2672 95.0778 64.0467 93.7697 69.8338 93.6697C77.6515 93.5345 78.2805 93.2414 80.0447 88.924C80.897 86.838 82.3984 83.8659 83.3803 82.3185L85.1661 79.5064L83.967 75.9847C83.3075 74.0477 81.9857 71.279 81.0294 69.8323C78.7645 66.4051 78.3408 64.5853 79.1383 61.7132C80.0939 58.2708 83.345 55.8187 86.9123 55.8483C90.2777 55.8773 92.2375 56.8213 94.2646 59.3928C95.0649 60.4071 97.2736 62.3717 99.1737 63.7585L102.629 66.2803L107.45 65.1894C110.102 64.5901 113.65 64.0991 115.334 64.0991H118.397L118.838 60.8995C119.081 59.1404 119.279 53.7693 119.279 48.9643V40.228L95.5274 30.8097C82.4636 25.6296 71.3075 21.2556 70.7354 21.0894C70.1632 20.9232 58.6986 25.1793 45.2588 30.5477ZM27.3496 47.0679C26.5216 49.2125 27.3725 55.3249 28.6062 56.0945C31.4627 57.8764 33.376 53.8651 32.0722 48.8277C31.6028 47.0148 31.0688 46.468 29.6027 46.2963C28.4536 46.1618 27.584 46.4597 27.3496 47.0679ZM136.29 58.2653C135.275 59.9872 133.488 62.48 132.317 63.8047C131.148 65.1301 130.31 66.3113 130.456 66.4299C131.035 66.8995 135.46 68.9214 135.55 68.7566C136.708 66.6285 140.045 56.3193 139.736 55.8228C138.945 54.5505 138.145 55.1174 136.29 58.2653ZM28.4211 61.6994C26.0063 64.5929 33.6035 96.4335 38.471 103.82C39.7151 105.708 41.7193 105.969 43.0189 104.412C43.7554 103.53 43.4766 102.309 41.3753 97.1989C38.2054 89.4929 35.8261 80.4573 34.2852 70.2729C33.6277 65.9293 32.7838 61.9877 32.41 61.5132C31.4814 60.3354 29.4814 60.4292 28.4211 61.6994ZM84.6141 62.7034C84.0274 63.7937 84.2971 64.7998 85.9691 67.7449C88.8284 72.783 90.5191 77.939 91.8402 85.6526C93.0413 92.6643 92.8644 94.1482 90.7493 94.8164C88.8062 95.4295 87.6272 94.1551 87.0406 90.8072L86.5288 87.8896L85.1571 90.9044C82.9587 95.7356 82.1751 102.073 83.0697 107.783C84.3325 115.851 88.0725 123.133 88.0725 117.525C88.0725 115.017 90.4428 114.037 92.2243 115.809C93.3804 116.958 93.5531 117.738 93.1848 120.134C92.5413 124.317 89.4844 130.661 85.7486 135.565C83.9754 137.893 82.5246 140.142 82.5246 140.564C82.5246 142.008 84.7306 141.333 87.3817 139.076C90.5017 136.421 98.5767 132.346 104.159 130.609C107.41 129.598 108.301 129.537 109.187 130.268C110.683 131.503 110.532 133.482 108.853 134.651C107.489 135.601 107.515 135.648 109.634 136.069C117.478 137.63 127.804 135.847 134.071 131.851L136.963 130.006L133.496 129.257C130.498 128.61 129.999 128.262 129.813 126.692C129.134 120.953 140.959 124.026 150.999 132.197C152.798 133.662 154.361 134.428 155.03 134.173C155.63 133.944 155.974 133.521 155.792 133.234C155.61 132.947 154.075 130.66 152.38 128.151C148.978 123.116 144.754 112.419 145.078 109.655C145.254 108.156 145.631 107.889 147.567 107.896C150.397 107.906 150.842 106.593 150.159 100.251C149.602 95.0716 149.202 95.1143 145.574 100.736C143.729 103.595 143.057 104.133 141.548 103.959C135.882 103.305 142.55 93.2656 154.6 84.3093C161.664 79.0575 161.163 77.8893 153.313 81.3152C147.712 83.7597 139.89 85.0934 134.837 84.4659C130.79 83.9632 129.459 82.9191 129.801 80.5146C130.018 78.9954 130.259 78.934 135.229 79.1209L140.43 79.3168L138.003 77.2267C132.957 72.8802 124.151 69.6392 117.348 69.624C113.848 69.6165 113.717 69.6806 114.456 71.0522C115.075 72.2024 114.982 72.7596 113.992 73.8477C112.997 74.9407 112.208 75.1241 109.95 74.7842C105.297 74.0849 97.6703 69.9633 92.775 65.5038C88.001 61.1533 85.8464 60.414 84.6141 62.7034ZM70.2742 99.087C64.019 99.4428 62.3331 102.183 67.8123 103.087C69.2291 103.321 71.768 103.953 73.4538 104.491C75.139 105.03 76.5814 105.393 76.6584 105.299C76.7361 105.206 77.0142 103.655 77.277 101.854C77.7326 98.7305 77.6806 98.5843 76.1522 98.7112C75.2708 98.7843 72.6258 98.9532 70.2742 99.087ZM116.046 143.012C116.256 143.558 116.79 145.343 117.232 146.978C118.891 153.117 122.601 152.073 122.161 145.591L121.919 142.022H118.791C116.356 142.022 115.748 142.241 116.046 143.012Z" fill="#FCEE03"/>
</svg>
