<svg width="1373" height="515" viewBox="0 0 1373 515" fill="none" xmlns="http://www.w3.org/2000/svg">
<g clip-path="url(#clip0_347_1471)">
<rect width="1373" height="515" rx="18" fill="#588EF7"/>
<path d="M-96.3163 377.755C-100.914 370.675 -111.427 369.34 -119.795 374.775L-179 283.607C-111.121 239.526 -25.859 250.348 11.4372 307.779L134.472 497.236C139.07 504.317 149.582 505.651 157.951 500.217C166.32 494.782 169.376 484.636 164.778 477.556L41.7429 288.098C4.44674 230.667 29.2393 148.375 97.1196 104.293C164.998 60.2124 250.259 71.0349 287.555 128.466L410.59 317.923C415.188 325.003 425.702 326.337 434.069 320.903C442.437 315.469 445.495 305.322 440.897 298.242L317.862 108.785C280.566 51.3536 305.358 -30.9381 373.236 -75.0189C441.118 -119.102 526.379 -108.279 563.675 -50.8482L686.71 138.609C691.308 145.689 701.818 147.025 710.189 141.589C718.557 136.155 721.614 126.008 717.017 118.928L593.981 -70.5296C556.685 -127.961 581.477 -210.252 649.356 -254.333L708.561 -163.166C700.193 -157.732 697.135 -147.584 701.733 -140.504L824.768 48.953C862.064 106.384 837.272 188.676 769.394 232.757C701.512 276.839 616.251 266.016 578.955 208.586L455.92 19.1285C451.322 12.0484 440.812 10.7126 432.441 16.1487C424.073 21.5827 421.016 31.7298 425.613 38.8099L548.649 228.267C585.944 285.698 561.153 367.99 493.274 412.071C425.396 456.152 340.134 445.329 302.839 387.898L179.804 198.441C175.206 191.361 164.692 190.027 156.325 195.461C147.954 200.897 144.899 211.042 149.497 218.122L272.532 407.579C309.828 465.01 285.035 547.303 217.156 591.384C149.276 635.466 64.0145 624.643 26.7187 567.212L-96.3163 377.755Z" fill="white" fill-opacity="0.06"/>
<path d="M668.299 580.767C662.435 574.695 652.232 575.032 645.513 581.521L570 503.325C624.505 450.69 707.253 447.954 754.822 497.213L911.747 659.713C917.611 665.786 927.814 665.449 934.533 658.96C941.253 652.471 941.946 642.286 936.082 636.214L779.157 473.713C731.588 424.454 737.21 341.852 791.716 289.216C846.221 236.582 928.968 233.846 976.537 283.105L1133.46 445.605C1139.33 451.678 1149.53 451.34 1156.25 444.852C1162.97 438.363 1163.66 428.178 1157.8 422.105L1000.87 259.605C953.304 210.345 958.926 127.744 1013.43 75.1095C1067.94 22.4727 1150.68 19.7367 1198.25 68.9961L1355.18 231.496C1361.04 237.569 1371.24 237.233 1377.97 230.743C1384.68 224.254 1385.38 214.069 1379.51 207.996L1222.59 45.4957C1175.02 -3.76371 1180.64 -86.3651 1235.15 -139L1310.66 -60.8038C1303.94 -54.3153 1303.25 -44.1299 1309.11 -38.0572L1466.04 124.443C1513.6 173.702 1507.98 256.304 1453.48 308.938C1398.97 361.575 1316.22 364.311 1268.65 315.052L1111.73 152.551C1105.87 146.479 1095.66 146.814 1088.94 153.305C1082.22 159.794 1081.53 169.979 1087.39 176.052L1244.32 338.552C1291.89 387.811 1286.27 470.413 1231.76 523.047C1177.26 575.682 1094.51 578.417 1046.94 529.158L890.016 366.658C884.152 360.585 873.948 360.923 867.229 367.412C860.508 373.903 859.816 384.086 865.681 390.158L1022.61 552.659C1070.17 601.918 1064.55 684.521 1010.05 737.156C955.541 789.791 872.793 792.527 825.224 743.268L668.299 580.767Z" fill="white" fill-opacity="0.06"/>
</g>
<defs>
<clipPath id="clip0_347_1471">
<rect width="1373" height="515" fill="white"/>
</clipPath>
</defs>
</svg>
